<mxfile host="65bd71144e">
    <diagram id="C5RBs43oDa-KdzZeNtuy" name="Page-1">
        <mxGraphModel dx="2814" dy="668" grid="1" gridSize="10" guides="1" tooltips="1" connect="1" arrows="1" fold="1" page="1" pageScale="1" pageWidth="827" pageHeight="1169" math="0" shadow="0">
            <root>
                <mxCell id="WIyWlLk6GJQsqaUBKTNV-0"/>
                <mxCell id="WIyWlLk6GJQsqaUBKTNV-1" parent="WIyWlLk6GJQsqaUBKTNV-0"/>
                <mxCell id="M7CGMbNuYNeq0SnUNNgH-6" value="ทบทวนสัญลักษณ์" style="swimlane;fontFamily=Sarabun;fontSource=https%3A%2F%2Ffonts.googleapis.com%2Fcss%3Ffamily%3DSarabun;" parent="WIyWlLk6GJQsqaUBKTNV-1" vertex="1">
                    <mxGeometry x="-745" y="20" width="650" height="290" as="geometry"/>
                </mxCell>
                <mxCell id="M7CGMbNuYNeq0SnUNNgH-2" value="&lt;font data-font-src=&quot;https://fonts.googleapis.com/css?family=Sarabun&quot; face=&quot;Sarabun&quot;&gt;เริ่มต้น&lt;/font&gt;" style="ellipse;whiteSpace=wrap;html=1;" parent="M7CGMbNuYNeq0SnUNNgH-6" vertex="1">
                    <mxGeometry x="20" y="40" width="130" height="30" as="geometry"/>
                </mxCell>
                <mxCell id="M7CGMbNuYNeq0SnUNNgH-5" value="" style="endArrow=classic;html=1;rounded=0;" parent="M7CGMbNuYNeq0SnUNNgH-6" edge="1">
                    <mxGeometry width="50" height="50" relative="1" as="geometry">
                        <mxPoint x="84.5" y="70" as="sourcePoint"/>
                        <mxPoint x="84.5" y="120" as="targetPoint"/>
                    </mxGeometry>
                </mxCell>
                <mxCell id="M7CGMbNuYNeq0SnUNNgH-3" value="&lt;font face=&quot;Sarabun&quot;&gt;สิ้นสุด&lt;/font&gt;" style="ellipse;whiteSpace=wrap;html=1;" parent="M7CGMbNuYNeq0SnUNNgH-6" vertex="1">
                    <mxGeometry x="150" y="90" width="130" height="30" as="geometry"/>
                </mxCell>
                <mxCell id="M7CGMbNuYNeq0SnUNNgH-4" value="" style="endArrow=classic;html=1;rounded=0;" parent="M7CGMbNuYNeq0SnUNNgH-6" edge="1">
                    <mxGeometry width="50" height="50" relative="1" as="geometry">
                        <mxPoint x="214.5" y="40" as="sourcePoint"/>
                        <mxPoint x="214.5" y="90" as="targetPoint"/>
                    </mxGeometry>
                </mxCell>
                <mxCell id="mvioNwK95yMqdUQ73LqQ-0" value="กระบวนการ" style="rounded=0;whiteSpace=wrap;html=1;fontFamily=Sarabun;fontSource=https%3A%2F%2Ffonts.googleapis.com%2Fcss%3Ffamily%3DSarabun;" parent="M7CGMbNuYNeq0SnUNNgH-6" vertex="1">
                    <mxGeometry x="320" y="70" width="120" height="30" as="geometry"/>
                </mxCell>
                <mxCell id="mvioNwK95yMqdUQ73LqQ-1" value="" style="endArrow=classic;html=1;rounded=0;" parent="M7CGMbNuYNeq0SnUNNgH-6" edge="1">
                    <mxGeometry width="50" height="50" relative="1" as="geometry">
                        <mxPoint x="379" y="40" as="sourcePoint"/>
                        <mxPoint x="379.5" y="70" as="targetPoint"/>
                    </mxGeometry>
                </mxCell>
                <mxCell id="mvioNwK95yMqdUQ73LqQ-2" value="" style="endArrow=classic;html=1;rounded=0;" parent="M7CGMbNuYNeq0SnUNNgH-6" edge="1">
                    <mxGeometry width="50" height="50" relative="1" as="geometry">
                        <mxPoint x="379.75" y="100" as="sourcePoint"/>
                        <mxPoint x="380.25" y="130" as="targetPoint"/>
                    </mxGeometry>
                </mxCell>
                <mxCell id="mvioNwK95yMqdUQ73LqQ-3" value="ประโยคเงื่อนไข" style="rhombus;whiteSpace=wrap;html=1;fontFamily=Sarabun;fontSource=https%3A%2F%2Ffonts.googleapis.com%2Fcss%3Ffamily%3DSarabun;" parent="M7CGMbNuYNeq0SnUNNgH-6" vertex="1">
                    <mxGeometry x="490" y="60" width="100" height="60" as="geometry"/>
                </mxCell>
                <mxCell id="mvioNwK95yMqdUQ73LqQ-4" value="" style="endArrow=classic;html=1;rounded=0;" parent="M7CGMbNuYNeq0SnUNNgH-6" edge="1">
                    <mxGeometry width="50" height="50" relative="1" as="geometry">
                        <mxPoint x="539.71" y="30" as="sourcePoint"/>
                        <mxPoint x="540.21" y="60" as="targetPoint"/>
                    </mxGeometry>
                </mxCell>
                <mxCell id="mvioNwK95yMqdUQ73LqQ-5" value="" style="endArrow=classic;html=1;rounded=0;" parent="M7CGMbNuYNeq0SnUNNgH-6" edge="1">
                    <mxGeometry width="50" height="50" relative="1" as="geometry">
                        <mxPoint x="539.71" y="120" as="sourcePoint"/>
                        <mxPoint x="540" y="175" as="targetPoint"/>
                    </mxGeometry>
                </mxCell>
                <mxCell id="mvioNwK95yMqdUQ73LqQ-7" value="จริง" style="edgeLabel;html=1;align=center;verticalAlign=middle;resizable=0;points=[];fontFamily=Sarabun;fontSource=https%3A%2F%2Ffonts.googleapis.com%2Fcss%3Ffamily%3DSarabun;" parent="mvioNwK95yMqdUQ73LqQ-5" vertex="1" connectable="0">
                    <mxGeometry x="-0.4142" y="-1" relative="1" as="geometry">
                        <mxPoint as="offset"/>
                    </mxGeometry>
                </mxCell>
                <mxCell id="mvioNwK95yMqdUQ73LqQ-6" value="" style="endArrow=classic;html=1;rounded=0;exitX=1;exitY=0.5;exitDx=0;exitDy=0;" parent="M7CGMbNuYNeq0SnUNNgH-6" source="mvioNwK95yMqdUQ73LqQ-3" edge="1">
                    <mxGeometry width="50" height="50" relative="1" as="geometry">
                        <mxPoint x="620" y="95" as="sourcePoint"/>
                        <mxPoint x="610" y="175" as="targetPoint"/>
                        <Array as="points">
                            <mxPoint x="610" y="90"/>
                        </Array>
                    </mxGeometry>
                </mxCell>
                <mxCell id="mvioNwK95yMqdUQ73LqQ-8" value="&lt;font data-font-src=&quot;https://fonts.googleapis.com/css?family=Sarabun&quot; face=&quot;Sarabun&quot;&gt;เท็จ&lt;/font&gt;" style="edgeLabel;html=1;align=center;verticalAlign=middle;resizable=0;points=[];" parent="mvioNwK95yMqdUQ73LqQ-6" vertex="1" connectable="0">
                    <mxGeometry x="-0.0019" y="-2" relative="1" as="geometry">
                        <mxPoint as="offset"/>
                    </mxGeometry>
                </mxCell>
                <mxCell id="mvioNwK95yMqdUQ73LqQ-9" value="&lt;font data-font-src=&quot;https://fonts.googleapis.com/css?family=Sarabun&quot; face=&quot;Sarabun&quot;&gt;ฟังก์ชัน/โมดูล&lt;/font&gt;" style="shape=process;whiteSpace=wrap;html=1;backgroundOutline=1;" parent="M7CGMbNuYNeq0SnUNNgH-6" vertex="1">
                    <mxGeometry x="25" y="180" width="120" height="30" as="geometry"/>
                </mxCell>
                <mxCell id="mvioNwK95yMqdUQ73LqQ-11" value="" style="endArrow=classic;html=1;rounded=0;" parent="M7CGMbNuYNeq0SnUNNgH-6" edge="1">
                    <mxGeometry width="50" height="50" relative="1" as="geometry">
                        <mxPoint x="84.70999999999998" y="150" as="sourcePoint"/>
                        <mxPoint x="85.20999999999998" y="180" as="targetPoint"/>
                    </mxGeometry>
                </mxCell>
                <mxCell id="mvioNwK95yMqdUQ73LqQ-12" value="" style="endArrow=classic;html=1;rounded=0;" parent="M7CGMbNuYNeq0SnUNNgH-6" edge="1">
                    <mxGeometry width="50" height="50" relative="1" as="geometry">
                        <mxPoint x="84.70999999999998" y="210" as="sourcePoint"/>
                        <mxPoint x="85.20999999999998" y="240" as="targetPoint"/>
                    </mxGeometry>
                </mxCell>
                <mxCell id="mvioNwK95yMqdUQ73LqQ-13" value="" style="strokeWidth=2;html=1;shape=mxgraph.flowchart.start_2;whiteSpace=wrap;" parent="M7CGMbNuYNeq0SnUNNgH-6" vertex="1">
                    <mxGeometry x="205" y="190" width="20" height="20" as="geometry"/>
                </mxCell>
                <mxCell id="mvioNwK95yMqdUQ73LqQ-16" value="" style="endArrow=classic;html=1;rounded=0;" parent="M7CGMbNuYNeq0SnUNNgH-6" edge="1">
                    <mxGeometry width="50" height="50" relative="1" as="geometry">
                        <mxPoint x="214.70999999999998" y="155" as="sourcePoint"/>
                        <mxPoint x="215.20999999999998" y="185" as="targetPoint"/>
                    </mxGeometry>
                </mxCell>
                <mxCell id="mvioNwK95yMqdUQ73LqQ-17" value="" style="endArrow=classic;html=1;rounded=0;entryX=0;entryY=0.5;entryDx=0;entryDy=0;entryPerimeter=0;" parent="M7CGMbNuYNeq0SnUNNgH-6" target="mvioNwK95yMqdUQ73LqQ-13" edge="1">
                    <mxGeometry width="50" height="50" relative="1" as="geometry">
                        <mxPoint x="189.99999999999997" y="155" as="sourcePoint"/>
                        <mxPoint x="190.49999999999997" y="185" as="targetPoint"/>
                        <Array as="points">
                            <mxPoint x="190" y="180"/>
                        </Array>
                    </mxGeometry>
                </mxCell>
                <mxCell id="mvioNwK95yMqdUQ73LqQ-18" value="" style="endArrow=classic;html=1;rounded=0;entryX=1;entryY=0.5;entryDx=0;entryDy=0;entryPerimeter=0;" parent="M7CGMbNuYNeq0SnUNNgH-6" target="mvioNwK95yMqdUQ73LqQ-13" edge="1">
                    <mxGeometry width="50" height="50" relative="1" as="geometry">
                        <mxPoint x="239.99999999999997" y="155" as="sourcePoint"/>
                        <mxPoint x="240.49999999999997" y="185" as="targetPoint"/>
                        <Array as="points">
                            <mxPoint x="240" y="180"/>
                        </Array>
                    </mxGeometry>
                </mxCell>
                <mxCell id="mvioNwK95yMqdUQ73LqQ-19" value="" style="endArrow=classic;html=1;rounded=0;" parent="M7CGMbNuYNeq0SnUNNgH-6" edge="1">
                    <mxGeometry width="50" height="50" relative="1" as="geometry">
                        <mxPoint x="214.70999999999998" y="205" as="sourcePoint"/>
                        <mxPoint x="215.20999999999998" y="235" as="targetPoint"/>
                    </mxGeometry>
                </mxCell>
                <mxCell id="176" value="" style="edgeStyle=none;html=1;fontSize=12;" edge="1" parent="M7CGMbNuYNeq0SnUNNgH-6" source="mvioNwK95yMqdUQ73LqQ-20" target="mvioNwK95yMqdUQ73LqQ-29">
                    <mxGeometry relative="1" as="geometry"/>
                </mxCell>
                <mxCell id="mvioNwK95yMqdUQ73LqQ-20" value="&lt;font data-font-src=&quot;https://fonts.googleapis.com/css?family=Sarabun&quot; face=&quot;Sarabun&quot;&gt;ตัวเชื่อม&lt;/font&gt;" style="text;html=1;align=center;verticalAlign=middle;resizable=0;points=[];autosize=1;strokeColor=none;fillColor=none;" parent="M7CGMbNuYNeq0SnUNNgH-6" vertex="1">
                    <mxGeometry x="220" y="190" width="60" height="30" as="geometry"/>
                </mxCell>
                <mxCell id="mvioNwK95yMqdUQ73LqQ-25" value="" style="endArrow=classic;html=1;rounded=0;" parent="M7CGMbNuYNeq0SnUNNgH-6" edge="1">
                    <mxGeometry width="50" height="50" relative="1" as="geometry">
                        <mxPoint x="353.71" y="165" as="sourcePoint"/>
                        <mxPoint x="354.21" y="195" as="targetPoint"/>
                    </mxGeometry>
                </mxCell>
                <mxCell id="mvioNwK95yMqdUQ73LqQ-21" value="" style="verticalLabelPosition=bottom;verticalAlign=top;html=1;shape=offPageConnector;rounded=0;size=0.5;" parent="M7CGMbNuYNeq0SnUNNgH-6" vertex="1">
                    <mxGeometry x="339" y="195" width="30" height="30" as="geometry"/>
                </mxCell>
                <mxCell id="mvioNwK95yMqdUQ73LqQ-26" value="" style="endArrow=classic;html=1;rounded=0;" parent="M7CGMbNuYNeq0SnUNNgH-6" edge="1">
                    <mxGeometry width="50" height="50" relative="1" as="geometry">
                        <mxPoint x="405.71" y="195" as="sourcePoint"/>
                        <mxPoint x="406.21" y="225" as="targetPoint"/>
                    </mxGeometry>
                </mxCell>
                <mxCell id="mvioNwK95yMqdUQ73LqQ-27" value="" style="verticalLabelPosition=bottom;verticalAlign=top;html=1;shape=offPageConnector;rounded=0;size=0.5;" parent="M7CGMbNuYNeq0SnUNNgH-6" vertex="1">
                    <mxGeometry x="391" y="165" width="30" height="30" as="geometry"/>
                </mxCell>
                <mxCell id="mvioNwK95yMqdUQ73LqQ-28" value="หน้าต่อไป" style="text;html=1;align=center;verticalAlign=middle;resizable=0;points=[];autosize=1;strokeColor=none;fillColor=none;fontFamily=Sarabun;fontSource=https%3A%2F%2Ffonts.googleapis.com%2Fcss%3Ffamily%3DSarabun;" parent="M7CGMbNuYNeq0SnUNNgH-6" vertex="1">
                    <mxGeometry x="345" y="220" width="70" height="30" as="geometry"/>
                </mxCell>
                <mxCell id="mvioNwK95yMqdUQ73LqQ-29" value="ก" style="text;html=1;align=center;verticalAlign=middle;resizable=0;points=[];autosize=1;strokeColor=none;fillColor=none;fontFamily=Sarabun;fontSource=https%3A%2F%2Ffonts.googleapis.com%2Fcss%3Ffamily%3DSarabun;" parent="M7CGMbNuYNeq0SnUNNgH-6" vertex="1">
                    <mxGeometry x="339" y="190" width="30" height="30" as="geometry"/>
                </mxCell>
                <mxCell id="mvioNwK95yMqdUQ73LqQ-30" value="ก" style="text;html=1;align=center;verticalAlign=middle;resizable=0;points=[];autosize=1;strokeColor=none;fillColor=none;fontFamily=Sarabun;fontSource=https%3A%2F%2Ffonts.googleapis.com%2Fcss%3Ffamily%3DSarabun;" parent="M7CGMbNuYNeq0SnUNNgH-6" vertex="1">
                    <mxGeometry x="435" y="175" width="30" height="30" as="geometry"/>
                </mxCell>
                <mxCell id="mvioNwK95yMqdUQ73LqQ-32" value="แสดงผล/รับค่า" style="shape=parallelogram;perimeter=parallelogramPerimeter;whiteSpace=wrap;html=1;fixedSize=1;fontFamily=Sarabun;fontSource=https%3A%2F%2Ffonts.googleapis.com%2Fcss%3Ffamily%3DSarabun;" parent="M7CGMbNuYNeq0SnUNNgH-6" vertex="1">
                    <mxGeometry x="450" y="205" width="120" height="30" as="geometry"/>
                </mxCell>
                <mxCell id="mvioNwK95yMqdUQ73LqQ-33" value="" style="endArrow=classic;html=1;rounded=0;" parent="M7CGMbNuYNeq0SnUNNgH-6" edge="1">
                    <mxGeometry width="50" height="50" relative="1" as="geometry">
                        <mxPoint x="509.71" y="180" as="sourcePoint"/>
                        <mxPoint x="510.21" y="210" as="targetPoint"/>
                    </mxGeometry>
                </mxCell>
                <mxCell id="mvioNwK95yMqdUQ73LqQ-34" value="" style="endArrow=classic;html=1;rounded=0;" parent="M7CGMbNuYNeq0SnUNNgH-6" edge="1">
                    <mxGeometry width="50" height="50" relative="1" as="geometry">
                        <mxPoint x="509.71" y="240" as="sourcePoint"/>
                        <mxPoint x="510.21" y="270" as="targetPoint"/>
                    </mxGeometry>
                </mxCell>
                <mxCell id="mvioNwK95yMqdUQ73LqQ-36" value="" style="swimlane;fontFamily=Sarabun;fontSource=https%3A%2F%2Ffonts.googleapis.com%2Fcss%3Ffamily%3DSarabun;startSize=23;" parent="WIyWlLk6GJQsqaUBKTNV-1" vertex="1">
                    <mxGeometry x="-830" y="810" width="797" height="16698" as="geometry"/>
                </mxCell>
                <mxCell id="129" style="edgeStyle=none;html=1;entryX=0.5;entryY=0;entryDx=0;entryDy=0;" edge="1" parent="mvioNwK95yMqdUQ73LqQ-36" source="mvioNwK95yMqdUQ73LqQ-35" target="3">
                    <mxGeometry relative="1" as="geometry"/>
                </mxCell>
                <mxCell id="mvioNwK95yMqdUQ73LqQ-35" value="&lt;font data-font-src=&quot;https://fonts.googleapis.com/css?family=Sarabun&quot; face=&quot;Sarabun&quot;&gt;เริ่มต้น&lt;/font&gt;" style="ellipse;whiteSpace=wrap;html=1;" parent="mvioNwK95yMqdUQ73LqQ-36" vertex="1">
                    <mxGeometry x="324" y="50" width="145" height="50" as="geometry"/>
                </mxCell>
                <mxCell id="131" style="edgeStyle=none;html=1;entryX=0.5;entryY=0;entryDx=0;entryDy=0;" edge="1" parent="mvioNwK95yMqdUQ73LqQ-36" source="3" target="130">
                    <mxGeometry relative="1" as="geometry"/>
                </mxCell>
                <mxCell id="3" value="เครื่องดื่ม&lt;br&gt;&lt;br&gt;กาแฟอเมริกาโน่ร้อน 35 ฿&lt;br&gt;ลาเต้เย็น 45 ฿&lt;br&gt;นํ้าเปล่า 10 ฿&lt;br&gt;&lt;br&gt;ขนม&lt;br&gt;&lt;br&gt;ขนมชั้น 5 ฿&lt;br&gt;ฝอยทอง 15 ฿&lt;br&gt;ลำไยอบแห้ง 50 ฿" style="shape=parallelogram;perimeter=parallelogramPerimeter;whiteSpace=wrap;html=1;fixedSize=1;" parent="mvioNwK95yMqdUQ73LqQ-36" vertex="1">
                    <mxGeometry x="316.5" y="145" width="160" height="180" as="geometry"/>
                </mxCell>
                <mxCell id="136" style="edgeStyle=none;html=1;entryX=0.5;entryY=0;entryDx=0;entryDy=0;" edge="1" parent="mvioNwK95yMqdUQ73LqQ-36" source="130" target="135">
                    <mxGeometry relative="1" as="geometry"/>
                </mxCell>
                <mxCell id="130" value="กรุณารอ5วินาทีเพื่อ&lt;br&gt;เลือกสินค้าและจำนวนสินค้า" style="shape=parallelogram;perimeter=parallelogramPerimeter;whiteSpace=wrap;html=1;fixedSize=1;" vertex="1" parent="mvioNwK95yMqdUQ73LqQ-36">
                    <mxGeometry x="316" y="380" width="165" height="87.5" as="geometry"/>
                </mxCell>
                <mxCell id="139" style="edgeStyle=none;html=1;entryX=0.5;entryY=0;entryDx=0;entryDy=0;" edge="1" parent="mvioNwK95yMqdUQ73LqQ-36" source="135" target="138">
                    <mxGeometry relative="1" as="geometry"/>
                </mxCell>
                <mxCell id="135" value="&amp;nbsp;35=A 25=B 10=C 5=O 20=E 50=F 0=G H=จำนวนสินค้าที่ลูกค้าเลือก&lt;br&gt;F=AXH,FRATE=BXH, FPAO=CXH, FFOY=EXH, FLUMYAI=JXHMANYMAGA=50, &lt;br&gt;MANYRATE=50, MANYSUNSS=50,MANYFOY=50, MANYLUMYAI=50&lt;br&gt;MANYFH=500, MANYFT=500, MANYTT=500, MANYFB=500, MANYOB=500&lt;br&gt;PFMAGA=5, PFRATE=6, PFPAO=2, PFSUNCC=3, PFPOY=7, PFLUNYAI=10" style="whiteSpace=wrap;html=1;" vertex="1" parent="mvioNwK95yMqdUQ73LqQ-36">
                    <mxGeometry x="116" y="520" width="565" height="120" as="geometry"/>
                </mxCell>
                <mxCell id="142" style="edgeStyle=none;html=1;entryX=0.5;entryY=0;entryDx=0;entryDy=0;" edge="1" parent="mvioNwK95yMqdUQ73LqQ-36" source="137" target="141">
                    <mxGeometry relative="1" as="geometry"/>
                </mxCell>
                <mxCell id="137" value="ปุ่มไม่ต้องการ,ปุ่มตกลง" style="shape=parallelogram;perimeter=parallelogramPerimeter;whiteSpace=wrap;html=1;fixedSize=1;" vertex="1" parent="mvioNwK95yMqdUQ73LqQ-36">
                    <mxGeometry x="320.5" y="824" width="156" height="60" as="geometry"/>
                </mxCell>
                <mxCell id="140" style="edgeStyle=none;html=1;entryX=0.5;entryY=0;entryDx=0;entryDy=0;" edge="1" parent="mvioNwK95yMqdUQ73LqQ-36" source="138" target="137">
                    <mxGeometry relative="1" as="geometry"/>
                </mxCell>
                <mxCell id="138" value="คุณต้องการ&lt;br&gt;กาแฟอมริกาโน่หรือไม่" style="shape=parallelogram;perimeter=parallelogramPerimeter;whiteSpace=wrap;html=1;fixedSize=1;" vertex="1" parent="mvioNwK95yMqdUQ73LqQ-36">
                    <mxGeometry x="307.5" y="700" width="182" height="60" as="geometry"/>
                </mxCell>
                <mxCell id="141" value="ลูกค้ากดปุ่มตกลง" style="rhombus;whiteSpace=wrap;html=1;" vertex="1" parent="mvioNwK95yMqdUQ73LqQ-36">
                    <mxGeometry x="331.75" y="960" width="133.5" height="90" as="geometry"/>
                </mxCell>
                <mxCell id="145" value="FRATE=0" style="shape=parallelogram;perimeter=parallelogramPerimeter;whiteSpace=wrap;html=1;fixedSize=1;" vertex="1" parent="mvioNwK95yMqdUQ73LqQ-36">
                    <mxGeometry x="55" y="1100" width="120" height="60" as="geometry"/>
                </mxCell>
                <mxCell id="148" value="T" style="text;html=1;align=center;verticalAlign=middle;resizable=0;points=[];autosize=1;strokeColor=none;fillColor=none;fontSize=18;" vertex="1" parent="mvioNwK95yMqdUQ73LqQ-36">
                    <mxGeometry x="528" y="985" width="30" height="40" as="geometry"/>
                </mxCell>
                <mxCell id="149" value="" style="edgeStyle=none;html=1;endArrow=none;" edge="1" parent="mvioNwK95yMqdUQ73LqQ-36" source="141" target="148">
                    <mxGeometry relative="1" as="geometry">
                        <mxPoint x="658" y="1120" as="targetPoint"/>
                        <mxPoint x="465.25" y="1005" as="sourcePoint"/>
                        <Array as="points"/>
                    </mxGeometry>
                </mxCell>
                <mxCell id="147" value="F" style="text;html=1;align=center;verticalAlign=middle;resizable=0;points=[];autosize=1;strokeColor=none;fillColor=none;fontSize=18;" vertex="1" parent="mvioNwK95yMqdUQ73LqQ-36">
                    <mxGeometry x="188" y="985" width="30" height="40" as="geometry"/>
                </mxCell>
                <mxCell id="150" value="" style="edgeStyle=none;html=1;endArrow=none;" edge="1" parent="mvioNwK95yMqdUQ73LqQ-36" source="141" target="147">
                    <mxGeometry relative="1" as="geometry">
                        <mxPoint x="118" y="1110" as="targetPoint"/>
                        <mxPoint x="333.4694645441391" y="1006.1591895803185" as="sourcePoint"/>
                        <Array as="points"/>
                    </mxGeometry>
                </mxCell>
                <mxCell id="144" style="edgeStyle=none;html=1;startArrow=none;entryX=0.5;entryY=0;entryDx=0;entryDy=0;" edge="1" parent="mvioNwK95yMqdUQ73LqQ-36" source="147" target="145">
                    <mxGeometry relative="1" as="geometry">
                        <mxPoint x="118" y="1110" as="targetPoint"/>
                        <Array as="points">
                            <mxPoint x="118" y="1005"/>
                            <mxPoint x="118" y="1040"/>
                        </Array>
                    </mxGeometry>
                </mxCell>
                <mxCell id="151" value="&lt;font style=&quot;font-size: 12px;&quot;&gt;กรุณากดจำนวนที่ต้องการ&lt;/font&gt;" style="shape=parallelogram;perimeter=parallelogramPerimeter;whiteSpace=wrap;html=1;fixedSize=1;fontSize=18;" vertex="1" parent="mvioNwK95yMqdUQ73LqQ-36">
                    <mxGeometry x="598" y="1100" width="120" height="60" as="geometry"/>
                </mxCell>
                <mxCell id="143" style="edgeStyle=none;html=1;startArrow=none;entryX=0.5;entryY=0;entryDx=0;entryDy=0;" edge="1" parent="mvioNwK95yMqdUQ73LqQ-36" source="148" target="151">
                    <mxGeometry relative="1" as="geometry">
                        <mxPoint x="658" y="1140" as="targetPoint"/>
                        <Array as="points">
                            <mxPoint x="658" y="1005"/>
                            <mxPoint x="658" y="1080"/>
                        </Array>
                    </mxGeometry>
                </mxCell>
                <mxCell id="160" value="" style="edgeStyle=none;html=1;fontSize=12;endArrow=none;entryX=0.83;entryY=0.68;entryDx=0;entryDy=0;entryPerimeter=0;" edge="1" parent="mvioNwK95yMqdUQ73LqQ-36" source="145" target="158">
                    <mxGeometry relative="1" as="geometry">
                        <mxPoint x="408" y="1240" as="targetPoint"/>
                        <mxPoint x="158.557978196234" y="1149.3260654112983" as="sourcePoint"/>
                        <Array as="points">
                            <mxPoint x="128" y="1210"/>
                            <mxPoint x="368" y="1220"/>
                        </Array>
                    </mxGeometry>
                </mxCell>
                <mxCell id="162" value="" style="edgeStyle=none;html=1;fontSize=12;endArrow=none;" edge="1" parent="mvioNwK95yMqdUQ73LqQ-36" source="151" target="158">
                    <mxGeometry relative="1" as="geometry">
                        <mxPoint x="-400" y="2210" as="targetPoint"/>
                        <mxPoint x="-160" y="2060" as="sourcePoint"/>
                        <Array as="points">
                            <mxPoint x="658" y="1220"/>
                        </Array>
                    </mxGeometry>
                </mxCell>
                <mxCell id="158" value="" style="shape=waypoint;sketch=0;size=6;pointerEvents=1;points=[];fillColor=none;resizable=0;rotatable=0;perimeter=centerPerimeter;snapToPoint=1;fontSize=12;" vertex="1" parent="mvioNwK95yMqdUQ73LqQ-36">
                    <mxGeometry x="405" y="1240" width="20" height="20" as="geometry"/>
                </mxCell>
                <mxCell id="165" value="กรุณารอ3วินาทีเพื่อไปรายการต่อไป" style="shape=parallelogram;perimeter=parallelogramPerimeter;whiteSpace=wrap;html=1;fixedSize=1;fontSize=12;" vertex="1" parent="mvioNwK95yMqdUQ73LqQ-36">
                    <mxGeometry x="343.75" y="1300" width="142.5" height="70" as="geometry"/>
                </mxCell>
                <mxCell id="163" style="edgeStyle=none;html=1;fontSize=12;entryX=0.5;entryY=0;entryDx=0;entryDy=0;" edge="1" parent="mvioNwK95yMqdUQ73LqQ-36" source="158" target="165">
                    <mxGeometry relative="1" as="geometry">
                        <mxPoint x="415" y="1320" as="targetPoint"/>
                    </mxGeometry>
                </mxCell>
                <mxCell id="178" value="คุณต้องการลาเต้เย็น&lt;br&gt;หรือไม่" style="shape=parallelogram;perimeter=parallelogramPerimeter;whiteSpace=wrap;html=1;fixedSize=1;fontSize=12;" vertex="1" parent="mvioNwK95yMqdUQ73LqQ-36">
                    <mxGeometry x="337.5" y="1500" width="155" height="60" as="geometry"/>
                </mxCell>
                <mxCell id="177" style="edgeStyle=none;html=1;fontSize=12;entryX=0.5;entryY=0;entryDx=0;entryDy=0;" edge="1" parent="mvioNwK95yMqdUQ73LqQ-36" source="165" target="178">
                    <mxGeometry relative="1" as="geometry">
                        <mxPoint x="415" y="1489.9999999999995" as="targetPoint"/>
                    </mxGeometry>
                </mxCell>
                <mxCell id="181" value="ปุ่มไม่ต้องการ,ปุ่มตกลง" style="shape=parallelogram;perimeter=parallelogramPerimeter;whiteSpace=wrap;html=1;fixedSize=1;" vertex="1" parent="mvioNwK95yMqdUQ73LqQ-36">
                    <mxGeometry x="337.5" y="1620" width="156" height="60" as="geometry"/>
                </mxCell>
                <mxCell id="179" style="edgeStyle=none;html=1;fontSize=12;entryX=0.5;entryY=0;entryDx=0;entryDy=0;" edge="1" parent="mvioNwK95yMqdUQ73LqQ-36" source="178" target="181">
                    <mxGeometry relative="1" as="geometry">
                        <mxPoint x="415" y="1599.9999999999995" as="targetPoint"/>
                    </mxGeometry>
                </mxCell>
                <mxCell id="184" value="ลูกค้ากดปุ่มตกลง" style="rhombus;whiteSpace=wrap;html=1;fontSize=12;" vertex="1" parent="mvioNwK95yMqdUQ73LqQ-36">
                    <mxGeometry x="352" y="1760" width="124.5" height="100" as="geometry"/>
                </mxCell>
                <mxCell id="183" style="edgeStyle=none;html=1;fontSize=12;entryX=0.5;entryY=0;entryDx=0;entryDy=0;" edge="1" parent="mvioNwK95yMqdUQ73LqQ-36" source="181" target="184">
                    <mxGeometry relative="1" as="geometry">
                        <mxPoint x="415.5" y="1749.9999999999995" as="targetPoint"/>
                    </mxGeometry>
                </mxCell>
                <mxCell id="187" value="FPAO=0" style="whiteSpace=wrap;html=1;fontSize=12;" vertex="1" parent="mvioNwK95yMqdUQ73LqQ-36">
                    <mxGeometry x="78" y="1910" width="120" height="60" as="geometry"/>
                </mxCell>
                <mxCell id="191" value="F" style="text;html=1;align=center;verticalAlign=middle;resizable=0;points=[];autosize=1;strokeColor=none;fillColor=none;fontSize=24;" vertex="1" parent="mvioNwK95yMqdUQ73LqQ-36">
                    <mxGeometry x="218" y="1790" width="40" height="40" as="geometry"/>
                </mxCell>
                <mxCell id="192" value="" style="edgeStyle=none;html=1;fontSize=12;endArrow=none;" edge="1" parent="mvioNwK95yMqdUQ73LqQ-36" source="184" target="191">
                    <mxGeometry relative="1" as="geometry">
                        <mxPoint x="138" y="1919.9999999999995" as="targetPoint"/>
                        <mxPoint x="352" y="1809.9999999999995" as="sourcePoint"/>
                        <Array as="points"/>
                    </mxGeometry>
                </mxCell>
                <mxCell id="185" style="edgeStyle=none;html=1;fontSize=12;startArrow=none;" edge="1" parent="mvioNwK95yMqdUQ73LqQ-36" source="191" target="187">
                    <mxGeometry relative="1" as="geometry">
                        <mxPoint x="138" y="1920" as="targetPoint"/>
                        <Array as="points">
                            <mxPoint x="138" y="1810"/>
                        </Array>
                    </mxGeometry>
                </mxCell>
                <mxCell id="186" style="edgeStyle=none;html=1;fontSize=12;entryX=0.5;entryY=0;entryDx=0;entryDy=0;" edge="1" parent="mvioNwK95yMqdUQ73LqQ-36" source="184" target="nv5aGaVvqSRqhyQhocDM-1233">
                    <mxGeometry relative="1" as="geometry">
                        <mxPoint x="638" y="1909.9999999999995" as="targetPoint"/>
                        <Array as="points">
                            <mxPoint x="638" y="1810"/>
                        </Array>
                    </mxGeometry>
                </mxCell>
                <mxCell id="190" value="T" style="edgeLabel;html=1;align=center;verticalAlign=middle;resizable=0;points=[];fontSize=24;" vertex="1" connectable="0" parent="186">
                    <mxGeometry x="-0.5044" relative="1" as="geometry">
                        <mxPoint as="offset"/>
                    </mxGeometry>
                </mxCell>
                <mxCell id="200" value="" style="edgeStyle=none;html=1;fontSize=18;endArrow=none;exitX=0.5;exitY=1;exitDx=0;exitDy=0;" edge="1" parent="mvioNwK95yMqdUQ73LqQ-36" source="257" target="197">
                    <mxGeometry relative="1" as="geometry">
                        <mxPoint x="-300" y="3110" as="targetPoint"/>
                        <mxPoint x="638" y="2090" as="sourcePoint"/>
                        <Array as="points">
                            <mxPoint x="638" y="2140"/>
                        </Array>
                    </mxGeometry>
                </mxCell>
                <mxCell id="197" value="" style="shape=waypoint;sketch=0;size=6;pointerEvents=1;points=[];fillColor=none;resizable=0;rotatable=0;perimeter=centerPerimeter;snapToPoint=1;fontSize=18;" vertex="1" parent="mvioNwK95yMqdUQ73LqQ-36">
                    <mxGeometry x="378" y="2130" width="20" height="20" as="geometry"/>
                </mxCell>
                <mxCell id="256" style="edgeStyle=none;html=1;entryX=0.5;entryY=0;entryDx=0;entryDy=0;fontSize=12;" edge="1" parent="mvioNwK95yMqdUQ73LqQ-36" source="201" target="255">
                    <mxGeometry relative="1" as="geometry"/>
                </mxCell>
                <mxCell id="201" value="&lt;font style=&quot;font-size: 12px;&quot;&gt;คุณต้องการน้ำเปล่าหรือไม่&lt;/font&gt;" style="shape=parallelogram;perimeter=parallelogramPerimeter;whiteSpace=wrap;html=1;fixedSize=1;fontSize=18;" vertex="1" parent="mvioNwK95yMqdUQ73LqQ-36">
                    <mxGeometry x="297" y="2370" width="182" height="80" as="geometry"/>
                </mxCell>
                <mxCell id="203" style="edgeStyle=none;html=1;entryX=0.5;entryY=0;entryDx=0;entryDy=0;fontSize=12;" edge="1" parent="mvioNwK95yMqdUQ73LqQ-36" source="202" target="201">
                    <mxGeometry relative="1" as="geometry"/>
                </mxCell>
                <mxCell id="202" value="กรุณารอ3วินาทีเพื่อไปรายการต่อไป" style="shape=parallelogram;perimeter=parallelogramPerimeter;whiteSpace=wrap;html=1;fixedSize=1;fontSize=12;" vertex="1" parent="mvioNwK95yMqdUQ73LqQ-36">
                    <mxGeometry x="316" y="2240" width="142.5" height="70" as="geometry"/>
                </mxCell>
                <mxCell id="195" style="edgeStyle=none;html=1;fontSize=18;entryX=0.5;entryY=0;entryDx=0;entryDy=0;" edge="1" parent="mvioNwK95yMqdUQ73LqQ-36" source="187" target="202">
                    <mxGeometry relative="1" as="geometry">
                        <mxPoint x="388" y="2220" as="targetPoint"/>
                        <Array as="points">
                            <mxPoint x="138" y="2100"/>
                            <mxPoint x="388" y="2100"/>
                        </Array>
                    </mxGeometry>
                </mxCell>
                <mxCell id="267" style="edgeStyle=none;html=1;entryX=0.5;entryY=0;entryDx=0;entryDy=0;fontSize=12;" edge="1" parent="mvioNwK95yMqdUQ73LqQ-36" source="255" target="262">
                    <mxGeometry relative="1" as="geometry"/>
                </mxCell>
                <mxCell id="255" value="ปุ่มไม่ต้องการ,ปุ่มตกลง" style="shape=parallelogram;perimeter=parallelogramPerimeter;whiteSpace=wrap;html=1;fixedSize=1;" vertex="1" parent="mvioNwK95yMqdUQ73LqQ-36">
                    <mxGeometry x="310" y="2510" width="156" height="60" as="geometry"/>
                </mxCell>
                <mxCell id="257" value="BxH=FRATE" style="whiteSpace=wrap;html=1;fontSize=12;" vertex="1" parent="mvioNwK95yMqdUQ73LqQ-36">
                    <mxGeometry x="587" y="2023" width="102" height="50" as="geometry"/>
                </mxCell>
                <mxCell id="262" value="ลูกค้ากดปุ่มตกลง" style="rhombus;whiteSpace=wrap;html=1;fontSize=12;" vertex="1" parent="mvioNwK95yMqdUQ73LqQ-36">
                    <mxGeometry x="325" y="2640" width="124.5" height="100" as="geometry"/>
                </mxCell>
                <mxCell id="269" value="FPAO=0" style="whiteSpace=wrap;html=1;fontSize=12;" vertex="1" parent="mvioNwK95yMqdUQ73LqQ-36">
                    <mxGeometry x="68" y="2830" width="120" height="60" as="geometry"/>
                </mxCell>
                <mxCell id="268" style="edgeStyle=none;html=1;fontSize=12;entryX=0.5;entryY=0;entryDx=0;entryDy=0;startArrow=none;" edge="1" parent="mvioNwK95yMqdUQ73LqQ-36" source="jIR7DSRb_jp3hbyWwMM5-738" target="269">
                    <mxGeometry relative="1" as="geometry">
                        <mxPoint x="128" y="2840" as="targetPoint"/>
                        <Array as="points">
                            <mxPoint x="127" y="2690"/>
                        </Array>
                    </mxGeometry>
                </mxCell>
                <mxCell id="266" style="edgeStyle=none;html=1;fontSize=12;entryX=0.5;entryY=0;entryDx=0;entryDy=0;startArrow=none;" edge="1" parent="mvioNwK95yMqdUQ73LqQ-36" source="jIR7DSRb_jp3hbyWwMM5-741" target="nv5aGaVvqSRqhyQhocDM-1230">
                    <mxGeometry relative="1" as="geometry">
                        <mxPoint x="638" y="2800" as="targetPoint"/>
                        <Array as="points">
                            <mxPoint x="637" y="2690"/>
                        </Array>
                    </mxGeometry>
                </mxCell>
                <mxCell id="272" value="CxH=FPAO" style="whiteSpace=wrap;html=1;fontSize=12;" vertex="1" parent="mvioNwK95yMqdUQ73LqQ-36">
                    <mxGeometry x="587" y="2940" width="102" height="50" as="geometry"/>
                </mxCell>
                <mxCell id="279" value="กรุณารอ3วินาทีเพื่อไปรายการต่อไป" style="shape=parallelogram;perimeter=parallelogramPerimeter;whiteSpace=wrap;html=1;fixedSize=1;fontSize=12;" vertex="1" parent="mvioNwK95yMqdUQ73LqQ-36">
                    <mxGeometry x="330" y="3130" width="142.5" height="70" as="geometry"/>
                </mxCell>
                <mxCell id="281" value="&lt;font style=&quot;font-size: 12px;&quot;&gt;คุณต้องการขนมชั้นหรือไม่&lt;/font&gt;" style="shape=parallelogram;perimeter=parallelogramPerimeter;whiteSpace=wrap;html=1;fixedSize=1;fontSize=18;" vertex="1" parent="mvioNwK95yMqdUQ73LqQ-36">
                    <mxGeometry x="320.5" y="3250" width="164.25" height="70" as="geometry"/>
                </mxCell>
                <mxCell id="280" style="edgeStyle=none;html=1;fontSize=12;entryX=0.5;entryY=0;entryDx=0;entryDy=0;" edge="1" parent="mvioNwK95yMqdUQ73LqQ-36" source="279" target="281">
                    <mxGeometry relative="1" as="geometry">
                        <mxPoint x="415.49999999999955" y="3260" as="targetPoint"/>
                    </mxGeometry>
                </mxCell>
                <mxCell id="349" value="ปุ่มไม่ต้องการ,ปุ่มตกลง" style="shape=parallelogram;perimeter=parallelogramPerimeter;whiteSpace=wrap;html=1;fixedSize=1;" vertex="1" parent="mvioNwK95yMqdUQ73LqQ-36">
                    <mxGeometry x="330.37" y="3360" width="156" height="60" as="geometry"/>
                </mxCell>
                <mxCell id="282" style="edgeStyle=none;html=1;fontSize=12;entryX=0.5;entryY=0;entryDx=0;entryDy=0;" edge="1" parent="mvioNwK95yMqdUQ73LqQ-36" source="281" target="349">
                    <mxGeometry relative="1" as="geometry">
                        <mxPoint x="415.5050000000001" y="3390" as="targetPoint"/>
                    </mxGeometry>
                </mxCell>
                <mxCell id="351" value="ลูกค้ากดปุ่มตกลง" style="rhombus;whiteSpace=wrap;html=1;fontSize=12;" vertex="1" parent="mvioNwK95yMqdUQ73LqQ-36">
                    <mxGeometry x="351" y="3790" width="124.5" height="100" as="geometry"/>
                </mxCell>
                <mxCell id="350" style="edgeStyle=none;html=1;fontSize=12;" edge="1" parent="mvioNwK95yMqdUQ73LqQ-36" source="349" target="351">
                    <mxGeometry relative="1" as="geometry">
                        <mxPoint x="416" y="3590" as="targetPoint"/>
                    </mxGeometry>
                </mxCell>
                <mxCell id="360" value="&lt;font style=&quot;font-size: 12px;&quot;&gt;FSUNSS=0&lt;/font&gt;" style="whiteSpace=wrap;html=1;fontSize=24;" vertex="1" parent="mvioNwK95yMqdUQ73LqQ-36">
                    <mxGeometry x="67" y="3960" width="120" height="60" as="geometry"/>
                </mxCell>
                <mxCell id="358" value="T" style="text;html=1;align=center;verticalAlign=middle;resizable=0;points=[];autosize=1;strokeColor=none;fillColor=none;fontSize=24;" vertex="1" parent="mvioNwK95yMqdUQ73LqQ-36">
                    <mxGeometry x="558" y="3820" width="40" height="40" as="geometry"/>
                </mxCell>
                <mxCell id="359" value="" style="edgeStyle=none;html=1;fontSize=12;endArrow=none;" edge="1" parent="mvioNwK95yMqdUQ73LqQ-36" source="351" target="358">
                    <mxGeometry relative="1" as="geometry">
                        <mxPoint x="770" y="3800" as="targetPoint"/>
                        <mxPoint x="478.5" y="3800" as="sourcePoint"/>
                    </mxGeometry>
                </mxCell>
                <mxCell id="352" style="edgeStyle=none;html=1;fontSize=12;startArrow=none;entryX=0.5;entryY=0;entryDx=0;entryDy=0;" edge="1" parent="mvioNwK95yMqdUQ73LqQ-36" source="358" target="nv5aGaVvqSRqhyQhocDM-1228">
                    <mxGeometry relative="1" as="geometry">
                        <mxPoint x="687" y="3960" as="targetPoint"/>
                        <Array as="points">
                            <mxPoint x="690" y="3840"/>
                        </Array>
                    </mxGeometry>
                </mxCell>
                <mxCell id="356" value="F" style="text;html=1;align=center;verticalAlign=middle;resizable=0;points=[];autosize=1;strokeColor=none;fillColor=none;fontSize=24;" vertex="1" parent="mvioNwK95yMqdUQ73LqQ-36">
                    <mxGeometry x="198" y="3820" width="40" height="40" as="geometry"/>
                </mxCell>
                <mxCell id="357" value="" style="edgeStyle=none;html=1;fontSize=12;endArrow=none;" edge="1" parent="mvioNwK95yMqdUQ73LqQ-36" source="351" target="356">
                    <mxGeometry relative="1" as="geometry">
                        <mxPoint x="40" y="3800" as="targetPoint"/>
                        <mxPoint x="354" y="3800" as="sourcePoint"/>
                    </mxGeometry>
                </mxCell>
                <mxCell id="353" style="edgeStyle=none;html=1;fontSize=12;startArrow=none;entryX=0.5;entryY=0;entryDx=0;entryDy=0;" edge="1" parent="mvioNwK95yMqdUQ73LqQ-36" source="356" target="360">
                    <mxGeometry relative="1" as="geometry">
                        <mxPoint x="130" y="3900" as="targetPoint"/>
                        <Array as="points">
                            <mxPoint x="127" y="3840"/>
                        </Array>
                    </mxGeometry>
                </mxCell>
                <mxCell id="371" value="กรุณารอ3วินาทีเพื่อไปรายการต่อไป" style="shape=parallelogram;perimeter=parallelogramPerimeter;whiteSpace=wrap;html=1;fixedSize=1;fontSize=12;" vertex="1" parent="mvioNwK95yMqdUQ73LqQ-36">
                    <mxGeometry x="340.38" y="4230" width="142.5" height="70" as="geometry"/>
                </mxCell>
                <mxCell id="373" value="&lt;font style=&quot;font-size: 12px;&quot;&gt;คุณต้องการฝอยทอง&lt;br&gt;หรือไม่&lt;/font&gt;" style="shape=parallelogram;perimeter=parallelogramPerimeter;whiteSpace=wrap;html=1;fixedSize=1;fontSize=18;" vertex="1" parent="mvioNwK95yMqdUQ73LqQ-36">
                    <mxGeometry x="343.25" y="4350" width="140" height="60" as="geometry"/>
                </mxCell>
                <mxCell id="372" style="edgeStyle=none;html=1;fontSize=12;entryX=0.5;entryY=0;entryDx=0;entryDy=0;" edge="1" parent="mvioNwK95yMqdUQ73LqQ-36" source="371" target="373">
                    <mxGeometry relative="1" as="geometry">
                        <mxPoint x="412.5" y="4360" as="targetPoint"/>
                    </mxGeometry>
                </mxCell>
                <mxCell id="461" style="edgeStyle=none;html=1;entryX=0.5;entryY=0;entryDx=0;entryDy=0;fontSize=12;" edge="1" parent="mvioNwK95yMqdUQ73LqQ-36" source="375" target="459">
                    <mxGeometry relative="1" as="geometry"/>
                </mxCell>
                <mxCell id="375" value="ปุ่มไม่ต้องการ,ปุ่มตกลง" style="shape=parallelogram;perimeter=parallelogramPerimeter;whiteSpace=wrap;html=1;fixedSize=1;" vertex="1" parent="mvioNwK95yMqdUQ73LqQ-36">
                    <mxGeometry x="334.5" y="4460" width="156" height="60" as="geometry"/>
                </mxCell>
                <mxCell id="374" style="edgeStyle=none;html=1;fontSize=12;entryX=0.5;entryY=0;entryDx=0;entryDy=0;" edge="1" parent="mvioNwK95yMqdUQ73LqQ-36" source="373" target="375">
                    <mxGeometry relative="1" as="geometry">
                        <mxPoint x="413" y="4470" as="targetPoint"/>
                    </mxGeometry>
                </mxCell>
                <mxCell id="459" value="ลูกค้ากดปุ่มตกลง" style="rhombus;whiteSpace=wrap;html=1;fontSize=12;" vertex="1" parent="mvioNwK95yMqdUQ73LqQ-36">
                    <mxGeometry x="351" y="4580" width="124.5" height="100" as="geometry"/>
                </mxCell>
                <mxCell id="549" value="&lt;font style=&quot;font-size: 12px;&quot;&gt;FFOY=0&lt;/font&gt;" style="whiteSpace=wrap;html=1;fontSize=24;" vertex="1" parent="mvioNwK95yMqdUQ73LqQ-36">
                    <mxGeometry x="78" y="4700" width="120" height="60" as="geometry"/>
                </mxCell>
                <mxCell id="463" style="edgeStyle=none;html=1;fontSize=12;entryX=0.5;entryY=0;entryDx=0;entryDy=0;startArrow=none;" edge="1" parent="mvioNwK95yMqdUQ73LqQ-36" source="577" target="549">
                    <mxGeometry relative="1" as="geometry">
                        <mxPoint x="137" y="4710" as="targetPoint"/>
                        <Array as="points">
                            <mxPoint x="137" y="4630"/>
                        </Array>
                    </mxGeometry>
                </mxCell>
                <mxCell id="462" style="edgeStyle=none;html=1;fontSize=12;entryX=0.5;entryY=0;entryDx=0;entryDy=0;startArrow=none;" edge="1" parent="mvioNwK95yMqdUQ73LqQ-36" source="580" target="nv5aGaVvqSRqhyQhocDM-1226">
                    <mxGeometry relative="1" as="geometry">
                        <mxPoint x="687" y="4700" as="targetPoint"/>
                        <Array as="points">
                            <mxPoint x="687" y="4630"/>
                        </Array>
                    </mxGeometry>
                </mxCell>
                <mxCell id="552" value="FSUNSS=OXH" style="whiteSpace=wrap;html=1;fontSize=12;" vertex="1" parent="mvioNwK95yMqdUQ73LqQ-36">
                    <mxGeometry x="636" y="4080" width="102" height="50" as="geometry"/>
                </mxCell>
                <mxCell id="558" value="FFOY=EXH" style="whiteSpace=wrap;html=1;fontSize=12;" vertex="1" parent="mvioNwK95yMqdUQ73LqQ-36">
                    <mxGeometry x="633" y="4820" width="102" height="50" as="geometry"/>
                </mxCell>
                <mxCell id="567" style="edgeStyle=none;html=1;entryX=0.5;entryY=0;entryDx=0;entryDy=0;fontSize=12;" edge="1" parent="mvioNwK95yMqdUQ73LqQ-36" source="565" target="566">
                    <mxGeometry relative="1" as="geometry"/>
                </mxCell>
                <mxCell id="565" value="กรุณารอ3วินาทีเพื่อไปรายการต่อไป" style="shape=parallelogram;perimeter=parallelogramPerimeter;whiteSpace=wrap;html=1;fixedSize=1;fontSize=12;" vertex="1" parent="mvioNwK95yMqdUQ73LqQ-36">
                    <mxGeometry x="335.75" y="5020" width="142.5" height="70" as="geometry"/>
                </mxCell>
                <mxCell id="571" style="edgeStyle=none;html=1;entryX=0.5;entryY=0;entryDx=0;entryDy=0;fontSize=12;" edge="1" parent="mvioNwK95yMqdUQ73LqQ-36" source="566" target="569">
                    <mxGeometry relative="1" as="geometry"/>
                </mxCell>
                <mxCell id="566" value="คุณต้องการลำไยอบแห้ง&lt;br&gt;หรือไม่" style="shape=parallelogram;perimeter=parallelogramPerimeter;whiteSpace=wrap;html=1;fixedSize=1;fontSize=12;" vertex="1" parent="mvioNwK95yMqdUQ73LqQ-36">
                    <mxGeometry x="334.5" y="5140" width="151.5" height="80" as="geometry"/>
                </mxCell>
                <mxCell id="569" value="ปุ่มไม่ต้องการ,ปุ่มตกลง" style="shape=parallelogram;perimeter=parallelogramPerimeter;whiteSpace=wrap;html=1;fixedSize=1;" vertex="1" parent="mvioNwK95yMqdUQ73LqQ-36">
                    <mxGeometry x="332.25" y="5270" width="156" height="60" as="geometry"/>
                </mxCell>
                <mxCell id="573" value="ลูกค้ากดปุ่มตกลง" style="rhombus;whiteSpace=wrap;html=1;fontSize=12;" vertex="1" parent="mvioNwK95yMqdUQ73LqQ-36">
                    <mxGeometry x="348" y="5420" width="124.5" height="100" as="geometry"/>
                </mxCell>
                <mxCell id="572" style="edgeStyle=none;html=1;fontSize=12;entryX=0.5;entryY=0;entryDx=0;entryDy=0;" edge="1" parent="mvioNwK95yMqdUQ73LqQ-36" source="569" target="573">
                    <mxGeometry relative="1" as="geometry">
                        <mxPoint x="410.25" y="5400" as="targetPoint"/>
                    </mxGeometry>
                </mxCell>
                <mxCell id="577" value="&lt;span style=&quot;font-size: 24px;&quot;&gt;F&lt;/span&gt;" style="text;html=1;align=center;verticalAlign=middle;resizable=0;points=[];autosize=1;strokeColor=none;fillColor=none;fontSize=12;" vertex="1" parent="mvioNwK95yMqdUQ73LqQ-36">
                    <mxGeometry x="218" y="4610" width="40" height="40" as="geometry"/>
                </mxCell>
                <mxCell id="579" value="" style="edgeStyle=none;html=1;fontSize=12;endArrow=none;entryX=1.087;entryY=0.615;entryDx=0;entryDy=0;entryPerimeter=0;" edge="1" parent="mvioNwK95yMqdUQ73LqQ-36" source="459" target="577">
                    <mxGeometry relative="1" as="geometry">
                        <mxPoint x="-689" y="5580" as="targetPoint"/>
                        <mxPoint x="-476" y="5510" as="sourcePoint"/>
                        <Array as="points"/>
                    </mxGeometry>
                </mxCell>
                <mxCell id="580" value="T" style="text;html=1;align=center;verticalAlign=middle;resizable=0;points=[];autosize=1;strokeColor=none;fillColor=none;fontSize=24;" vertex="1" parent="mvioNwK95yMqdUQ73LqQ-36">
                    <mxGeometry x="538" y="4610" width="40" height="40" as="geometry"/>
                </mxCell>
                <mxCell id="581" value="" style="edgeStyle=none;html=1;fontSize=12;entryX=-0.09;entryY=0.497;entryDx=0;entryDy=0;endArrow=none;entryPerimeter=0;" edge="1" parent="mvioNwK95yMqdUQ73LqQ-36" source="459" target="580">
                    <mxGeometry relative="1" as="geometry">
                        <mxPoint x="-140" y="5580" as="targetPoint"/>
                        <mxPoint x="-351.5" y="5510" as="sourcePoint"/>
                        <Array as="points"/>
                    </mxGeometry>
                </mxCell>
                <mxCell id="582" value="F" style="text;html=1;align=center;verticalAlign=middle;resizable=0;points=[];autosize=1;strokeColor=none;fillColor=none;fontSize=24;" vertex="1" parent="mvioNwK95yMqdUQ73LqQ-36">
                    <mxGeometry x="198" y="5450" width="40" height="40" as="geometry"/>
                </mxCell>
                <mxCell id="583" value="" style="edgeStyle=none;html=1;fontSize=12;endArrow=none;" edge="1" parent="mvioNwK95yMqdUQ73LqQ-36" source="573" target="582">
                    <mxGeometry relative="1" as="geometry">
                        <mxPoint x="117" y="5550" as="targetPoint"/>
                        <mxPoint x="348" y="5470" as="sourcePoint"/>
                        <Array as="points"/>
                    </mxGeometry>
                </mxCell>
                <mxCell id="584" value="T" style="text;html=1;align=center;verticalAlign=middle;resizable=0;points=[];autosize=1;strokeColor=none;fillColor=none;fontSize=24;" vertex="1" parent="mvioNwK95yMqdUQ73LqQ-36">
                    <mxGeometry x="538" y="5450" width="40" height="40" as="geometry"/>
                </mxCell>
                <mxCell id="585" value="" style="edgeStyle=none;html=1;fontSize=12;endArrow=none;" edge="1" parent="mvioNwK95yMqdUQ73LqQ-36" source="573" target="584">
                    <mxGeometry relative="1" as="geometry">
                        <mxPoint x="697" y="5540" as="targetPoint"/>
                        <mxPoint x="472.5" y="5470" as="sourcePoint"/>
                        <Array as="points"/>
                    </mxGeometry>
                </mxCell>
                <mxCell id="693" value="&lt;span style=&quot;font-size: 12px;&quot;&gt;FLUMYAI=0&lt;/span&gt;" style="whiteSpace=wrap;html=1;fontSize=24;" vertex="1" parent="mvioNwK95yMqdUQ73LqQ-36">
                    <mxGeometry x="55" y="5540" width="120" height="60" as="geometry"/>
                </mxCell>
                <mxCell id="575" style="edgeStyle=none;html=1;fontSize=12;startArrow=none;entryX=0.5;entryY=0;entryDx=0;entryDy=0;" edge="1" parent="mvioNwK95yMqdUQ73LqQ-36" source="582" target="693">
                    <mxGeometry relative="1" as="geometry">
                        <mxPoint x="117" y="5550" as="targetPoint"/>
                        <Array as="points">
                            <mxPoint x="117" y="5470"/>
                        </Array>
                    </mxGeometry>
                </mxCell>
                <mxCell id="694" value="&lt;font style=&quot;font-size: 12px;&quot;&gt;กรุณากดจำนวนที่ต้องการ&lt;/font&gt;" style="shape=parallelogram;perimeter=parallelogramPerimeter;whiteSpace=wrap;html=1;fixedSize=1;fontSize=24;" vertex="1" parent="mvioNwK95yMqdUQ73LqQ-36">
                    <mxGeometry x="633" y="5540" width="120" height="60" as="geometry"/>
                </mxCell>
                <mxCell id="574" style="edgeStyle=none;html=1;fontSize=12;startArrow=none;entryX=0.5;entryY=0;entryDx=0;entryDy=0;" edge="1" parent="mvioNwK95yMqdUQ73LqQ-36" source="584" target="694">
                    <mxGeometry relative="1" as="geometry">
                        <mxPoint x="697" y="5540" as="targetPoint"/>
                        <Array as="points">
                            <mxPoint x="697" y="5470"/>
                        </Array>
                    </mxGeometry>
                </mxCell>
                <mxCell id="697" value="FLUMYAI=EXH" style="whiteSpace=wrap;html=1;fontSize=12;" vertex="1" parent="mvioNwK95yMqdUQ73LqQ-36">
                    <mxGeometry x="633" y="5650" width="120" height="60" as="geometry"/>
                </mxCell>
                <mxCell id="695" style="edgeStyle=none;html=1;fontSize=12;entryX=0.5;entryY=0;entryDx=0;entryDy=0;" edge="1" parent="mvioNwK95yMqdUQ73LqQ-36" source="694" target="697">
                    <mxGeometry relative="1" as="geometry">
                        <mxPoint x="693" y="5650" as="targetPoint"/>
                    </mxGeometry>
                </mxCell>
                <mxCell id="704" style="edgeStyle=none;html=1;entryX=0.5;entryY=0;entryDx=0;entryDy=0;fontSize=12;" edge="1" parent="mvioNwK95yMqdUQ73LqQ-36" source="702" target="703">
                    <mxGeometry relative="1" as="geometry"/>
                </mxCell>
                <mxCell id="702" value="ปุ่มตกลง" style="shape=parallelogram;perimeter=parallelogramPerimeter;whiteSpace=wrap;html=1;fixedSize=1;fontSize=12;" vertex="1" parent="mvioNwK95yMqdUQ73LqQ-36">
                    <mxGeometry x="349.5" y="5820" width="120" height="60" as="geometry"/>
                </mxCell>
                <mxCell id="703" value="กำลังคำนวณรายการ" style="shape=parallelogram;perimeter=parallelogramPerimeter;whiteSpace=wrap;html=1;fixedSize=1;fontSize=12;" vertex="1" parent="mvioNwK95yMqdUQ73LqQ-36">
                    <mxGeometry x="344.25" y="5910" width="134.75" height="70" as="geometry"/>
                </mxCell>
                <mxCell id="706" value="ยอดที่ต้องจ่าย =TOTAL =FMAGA + FRATE&lt;br&gt;+ FPAO + FSUNSS + FFOY + FLIIMYAI" style="shape=parallelogram;perimeter=parallelogramPerimeter;whiteSpace=wrap;html=1;fixedSize=1;fontSize=12;" vertex="1" parent="mvioNwK95yMqdUQ73LqQ-36">
                    <mxGeometry x="229.5" y="6050" width="360" height="80" as="geometry"/>
                </mxCell>
                <mxCell id="705" style="edgeStyle=none;html=1;fontSize=12;entryX=0.5;entryY=0;entryDx=0;entryDy=0;" edge="1" parent="mvioNwK95yMqdUQ73LqQ-36" source="703" target="706">
                    <mxGeometry relative="1" as="geometry">
                        <mxPoint x="411.625" y="6060" as="targetPoint"/>
                    </mxGeometry>
                </mxCell>
                <mxCell id="710" value="กรุณาจ่ายเงิน" style="shape=parallelogram;perimeter=parallelogramPerimeter;whiteSpace=wrap;html=1;fixedSize=1;fontSize=12;" vertex="1" parent="mvioNwK95yMqdUQ73LqQ-36">
                    <mxGeometry x="347" y="6230" width="120" height="60" as="geometry"/>
                </mxCell>
                <mxCell id="708" style="edgeStyle=none;html=1;fontSize=12;entryX=0.5;entryY=0;entryDx=0;entryDy=0;" edge="1" parent="mvioNwK95yMqdUQ73LqQ-36" source="706" target="710">
                    <mxGeometry relative="1" as="geometry">
                        <mxPoint x="410" y="6220" as="targetPoint"/>
                    </mxGeometry>
                </mxCell>
                <mxCell id="712" value="เงินที่ลูกค้าใส่มา&lt;br&gt;ทั้งหมด = ALL" style="whiteSpace=wrap;html=1;fontSize=12;" vertex="1" parent="mvioNwK95yMqdUQ73LqQ-36">
                    <mxGeometry x="337.51" y="6340" width="132" height="60" as="geometry"/>
                </mxCell>
                <mxCell id="711" style="edgeStyle=none;html=1;fontSize=12;entryX=0.523;entryY=0;entryDx=0;entryDy=0;entryPerimeter=0;" edge="1" parent="mvioNwK95yMqdUQ73LqQ-36" source="710" target="712">
                    <mxGeometry relative="1" as="geometry">
                        <mxPoint x="407" y="6350" as="targetPoint"/>
                    </mxGeometry>
                </mxCell>
                <mxCell id="714" value="ALL &amp;gt;= TOTAL" style="rhombus;whiteSpace=wrap;html=1;fontSize=12;" vertex="1" parent="mvioNwK95yMqdUQ73LqQ-36">
                    <mxGeometry x="341.25" y="6460" width="125.5" height="100" as="geometry"/>
                </mxCell>
                <mxCell id="713" style="edgeStyle=none;html=1;fontSize=12;entryX=0.5;entryY=0;entryDx=0;entryDy=0;" edge="1" parent="mvioNwK95yMqdUQ73LqQ-36" source="712" target="714">
                    <mxGeometry relative="1" as="geometry">
                        <mxPoint x="403.5100000000002" y="6490" as="targetPoint"/>
                    </mxGeometry>
                </mxCell>
                <mxCell id="717" value="เงินของคุณไม่พอกรุณา&lt;br&gt;ทำรายการใหม่" style="shape=parallelogram;perimeter=parallelogramPerimeter;whiteSpace=wrap;html=1;fixedSize=1;fontSize=12;" vertex="1" parent="mvioNwK95yMqdUQ73LqQ-36">
                    <mxGeometry x="34" y="6590" width="153" height="70" as="geometry"/>
                </mxCell>
                <mxCell id="715" style="edgeStyle=none;html=1;fontSize=12;entryX=0.5;entryY=0;entryDx=0;entryDy=0;startArrow=none;" edge="1" parent="mvioNwK95yMqdUQ73LqQ-36" source="jIR7DSRb_jp3hbyWwMM5-730" target="717">
                    <mxGeometry relative="1" as="geometry">
                        <mxPoint x="107" y="6590" as="targetPoint"/>
                        <Array as="points">
                            <mxPoint x="107" y="6510"/>
                        </Array>
                    </mxGeometry>
                </mxCell>
                <mxCell id="718" value="ALL&amp;gt;=500" style="rhombus;whiteSpace=wrap;html=1;fontSize=12;" vertex="1" parent="mvioNwK95yMqdUQ73LqQ-36">
                    <mxGeometry x="525" y="6689" width="122" height="100" as="geometry"/>
                </mxCell>
                <mxCell id="716" style="edgeStyle=none;html=1;fontSize=12;entryX=0.5;entryY=0;entryDx=0;entryDy=0;startArrow=none;" edge="1" parent="mvioNwK95yMqdUQ73LqQ-36" source="jIR7DSRb_jp3hbyWwMM5-732" target="718">
                    <mxGeometry relative="1" as="geometry">
                        <mxPoint x="687" y="6590" as="targetPoint"/>
                        <Array as="points">
                            <mxPoint x="586" y="6510"/>
                        </Array>
                    </mxGeometry>
                </mxCell>
                <mxCell id="722" value="ALL/500=FH&lt;br&gt;FH X 500-ALL=TFH" style="whiteSpace=wrap;html=1;fontSize=12;" vertex="1" parent="mvioNwK95yMqdUQ73LqQ-36">
                    <mxGeometry x="278" y="6800" width="120" height="60" as="geometry"/>
                </mxCell>
                <mxCell id="720" style="edgeStyle=none;html=1;fontSize=12;entryX=0.5;entryY=0;entryDx=0;entryDy=0;startArrow=none;" edge="1" parent="mvioNwK95yMqdUQ73LqQ-36" source="jIR7DSRb_jp3hbyWwMM5-734" target="722">
                    <mxGeometry relative="1" as="geometry">
                        <mxPoint x="337" y="6780" as="targetPoint"/>
                        <Array as="points">
                            <mxPoint x="337" y="6740"/>
                        </Array>
                    </mxGeometry>
                </mxCell>
                <mxCell id="724" value="FH=0" style="whiteSpace=wrap;html=1;fontSize=12;" vertex="1" parent="mvioNwK95yMqdUQ73LqQ-36">
                    <mxGeometry x="647" y="6980" width="120" height="60" as="geometry"/>
                </mxCell>
                <mxCell id="721" style="edgeStyle=none;html=1;fontSize=12;entryX=0.5;entryY=0;entryDx=0;entryDy=0;startArrow=none;" edge="1" parent="mvioNwK95yMqdUQ73LqQ-36" source="jIR7DSRb_jp3hbyWwMM5-736" target="724">
                    <mxGeometry relative="1" as="geometry">
                        <mxPoint x="707" y="6970" as="targetPoint"/>
                        <Array as="points">
                            <mxPoint x="707" y="6740"/>
                        </Array>
                    </mxGeometry>
                </mxCell>
                <mxCell id="729" value="คืนเงินที่ใส่มาให้ลูกค้า" style="shape=parallelogram;perimeter=parallelogramPerimeter;whiteSpace=wrap;html=1;fixedSize=1;fontSize=12;" vertex="1" parent="mvioNwK95yMqdUQ73LqQ-36">
                    <mxGeometry x="32" y="6975" width="158" height="75" as="geometry"/>
                </mxCell>
                <mxCell id="719" style="edgeStyle=none;html=1;fontSize=12;entryX=0.5;entryY=0;entryDx=0;entryDy=0;" edge="1" parent="mvioNwK95yMqdUQ73LqQ-36" source="717" target="729">
                    <mxGeometry relative="1" as="geometry">
                        <mxPoint x="110.5" y="6960" as="targetPoint"/>
                    </mxGeometry>
                </mxCell>
                <mxCell id="730" value="TFH&amp;gt;=100" style="rhombus;whiteSpace=wrap;html=1;fontSize=12;" vertex="1" parent="mvioNwK95yMqdUQ73LqQ-36">
                    <mxGeometry x="355" y="7210" width="115" height="80" as="geometry"/>
                </mxCell>
                <mxCell id="mvioNwK95yMqdUQ73LqQ-69" value="&lt;font face=&quot;Sarabun&quot;&gt;สิ้นสุด&lt;/font&gt;" style="ellipse;whiteSpace=wrap;html=1;" parent="mvioNwK95yMqdUQ73LqQ-36" vertex="1">
                    <mxGeometry x="55" y="10281" width="130" height="30" as="geometry"/>
                </mxCell>
                <mxCell id="nv5aGaVvqSRqhyQhocDM-743" value="F" style="text;html=1;align=center;verticalAlign=middle;resizable=0;points=[];autosize=1;strokeColor=none;fillColor=none;fontSize=18;" vertex="1" parent="mvioNwK95yMqdUQ73LqQ-36">
                    <mxGeometry x="277.5" y="7230" width="30" height="40" as="geometry"/>
                </mxCell>
                <mxCell id="nv5aGaVvqSRqhyQhocDM-744" value="" style="edgeStyle=none;html=1;fontSize=12;endArrow=none;" edge="1" parent="mvioNwK95yMqdUQ73LqQ-36" source="730" target="nv5aGaVvqSRqhyQhocDM-743">
                    <mxGeometry relative="1" as="geometry">
                        <mxPoint x="227" y="7350" as="targetPoint"/>
                        <mxPoint x="355" y="7250" as="sourcePoint"/>
                        <Array as="points"/>
                    </mxGeometry>
                </mxCell>
                <mxCell id="nv5aGaVvqSRqhyQhocDM-746" value="TFH/100=OH&lt;br&gt;OH X 100-TFH=TOH" style="whiteSpace=wrap;html=1;fontSize=12;" vertex="1" parent="mvioNwK95yMqdUQ73LqQ-36">
                    <mxGeometry x="167" y="7400" width="120" height="60" as="geometry"/>
                </mxCell>
                <mxCell id="nv5aGaVvqSRqhyQhocDM-740" style="edgeStyle=none;html=1;fontSize=12;startArrow=none;entryX=0.5;entryY=0;entryDx=0;entryDy=0;" edge="1" parent="mvioNwK95yMqdUQ73LqQ-36" source="nv5aGaVvqSRqhyQhocDM-743" target="nv5aGaVvqSRqhyQhocDM-746">
                    <mxGeometry relative="1" as="geometry">
                        <mxPoint x="227" y="7380" as="targetPoint"/>
                        <Array as="points">
                            <mxPoint x="227" y="7250"/>
                        </Array>
                    </mxGeometry>
                </mxCell>
                <mxCell id="nv5aGaVvqSRqhyQhocDM-747" value="OH=0" style="whiteSpace=wrap;html=1;fontSize=12;" vertex="1" parent="mvioNwK95yMqdUQ73LqQ-36">
                    <mxGeometry x="558" y="7400" width="120" height="60" as="geometry"/>
                </mxCell>
                <mxCell id="nv5aGaVvqSRqhyQhocDM-741" value="&lt;font style=&quot;font-size: 18px;&quot;&gt;T&lt;/font&gt;" style="text;html=1;align=center;verticalAlign=middle;resizable=0;points=[];autosize=1;strokeColor=none;fillColor=none;fontSize=12;" vertex="1" parent="mvioNwK95yMqdUQ73LqQ-36">
                    <mxGeometry x="528" y="7230" width="30" height="40" as="geometry"/>
                </mxCell>
                <mxCell id="nv5aGaVvqSRqhyQhocDM-742" value="" style="html=1;fontSize=12;endArrow=none;" edge="1" parent="mvioNwK95yMqdUQ73LqQ-36" source="730" target="nv5aGaVvqSRqhyQhocDM-741">
                    <mxGeometry relative="1" as="geometry">
                        <mxPoint x="637" y="7240" as="targetPoint"/>
                        <mxPoint x="470" y="7240" as="sourcePoint"/>
                    </mxGeometry>
                </mxCell>
                <mxCell id="nv5aGaVvqSRqhyQhocDM-739" style="html=1;fontSize=12;startArrow=none;entryX=0.5;entryY=0;entryDx=0;entryDy=0;" edge="1" parent="mvioNwK95yMqdUQ73LqQ-36" source="nv5aGaVvqSRqhyQhocDM-741" target="nv5aGaVvqSRqhyQhocDM-747">
                    <mxGeometry relative="1" as="geometry">
                        <mxPoint x="617" y="7380" as="targetPoint"/>
                        <Array as="points">
                            <mxPoint x="618" y="7250"/>
                        </Array>
                    </mxGeometry>
                </mxCell>
                <mxCell id="nv5aGaVvqSRqhyQhocDM-754" value="TOH&amp;lt;=50" style="rhombus;whiteSpace=wrap;html=1;fontSize=12;" vertex="1" parent="mvioNwK95yMqdUQ73LqQ-36">
                    <mxGeometry x="343.75" y="7550" width="112.75" height="80" as="geometry"/>
                </mxCell>
                <mxCell id="nv5aGaVvqSRqhyQhocDM-758" value="T" style="text;html=1;align=center;verticalAlign=middle;resizable=0;points=[];autosize=1;strokeColor=none;fillColor=none;fontSize=18;" vertex="1" parent="mvioNwK95yMqdUQ73LqQ-36">
                    <mxGeometry x="508" y="7570" width="30" height="40" as="geometry"/>
                </mxCell>
                <mxCell id="nv5aGaVvqSRqhyQhocDM-759" value="" style="edgeStyle=none;html=1;fontSize=12;endArrow=none;" edge="1" parent="mvioNwK95yMqdUQ73LqQ-36" source="nv5aGaVvqSRqhyQhocDM-754" target="nv5aGaVvqSRqhyQhocDM-758">
                    <mxGeometry relative="1" as="geometry">
                        <mxPoint x="607" y="7650" as="targetPoint"/>
                        <mxPoint x="452.8699999999999" y="7590" as="sourcePoint"/>
                        <Array as="points"/>
                    </mxGeometry>
                </mxCell>
                <mxCell id="nv5aGaVvqSRqhyQhocDM-761" value="&lt;font style=&quot;font-size: 12px;&quot;&gt;FT=0&lt;/font&gt;" style="whiteSpace=wrap;html=1;fontSize=18;" vertex="1" parent="mvioNwK95yMqdUQ73LqQ-36">
                    <mxGeometry x="547" y="7670" width="120" height="60" as="geometry"/>
                </mxCell>
                <mxCell id="nv5aGaVvqSRqhyQhocDM-755" style="edgeStyle=none;html=1;fontSize=12;startArrow=none;entryX=0.5;entryY=0;entryDx=0;entryDy=0;" edge="1" parent="mvioNwK95yMqdUQ73LqQ-36" source="nv5aGaVvqSRqhyQhocDM-758" target="nv5aGaVvqSRqhyQhocDM-761">
                    <mxGeometry relative="1" as="geometry">
                        <mxPoint x="607" y="7650" as="targetPoint"/>
                        <Array as="points">
                            <mxPoint x="607" y="7590"/>
                        </Array>
                    </mxGeometry>
                </mxCell>
                <mxCell id="nv5aGaVvqSRqhyQhocDM-762" value="TOH/50=FT&lt;br&gt;FT X 50-TOH=TFT" style="whiteSpace=wrap;html=1;fontSize=12;" vertex="1" parent="mvioNwK95yMqdUQ73LqQ-36">
                    <mxGeometry x="158" y="7660" width="120" height="60" as="geometry"/>
                </mxCell>
                <mxCell id="nv5aGaVvqSRqhyQhocDM-771" value="" style="edgeStyle=none;html=1;fontSize=12;startArrow=none;entryX=0.5;entryY=0;entryDx=0;entryDy=0;" edge="1" parent="mvioNwK95yMqdUQ73LqQ-36" source="nv5aGaVvqSRqhyQhocDM-773" target="nv5aGaVvqSRqhyQhocDM-778">
                    <mxGeometry relative="1" as="geometry">
                        <mxPoint x="667" y="7950" as="targetPoint"/>
                        <Array as="points">
                            <mxPoint x="587" y="7880"/>
                            <mxPoint x="667" y="7880"/>
                            <mxPoint x="667" y="7920"/>
                        </Array>
                    </mxGeometry>
                </mxCell>
                <mxCell id="nv5aGaVvqSRqhyQhocDM-769" value="TFT&amp;gt;=20" style="rhombus;whiteSpace=wrap;html=1;fontSize=12;" vertex="1" parent="mvioNwK95yMqdUQ73LqQ-36">
                    <mxGeometry x="356.5" y="7840" width="80" height="80" as="geometry"/>
                </mxCell>
                <mxCell id="nv5aGaVvqSRqhyQhocDM-773" value="&lt;span style=&quot;font-size: 18px;&quot;&gt;T&lt;/span&gt;" style="text;html=1;align=center;verticalAlign=middle;resizable=0;points=[];autosize=1;strokeColor=none;fillColor=none;fontSize=12;" vertex="1" parent="mvioNwK95yMqdUQ73LqQ-36">
                    <mxGeometry x="498" y="7860" width="30" height="40" as="geometry"/>
                </mxCell>
                <mxCell id="nv5aGaVvqSRqhyQhocDM-774" value="" style="edgeStyle=none;html=1;fontSize=12;endArrow=none;" edge="1" parent="mvioNwK95yMqdUQ73LqQ-36" source="nv5aGaVvqSRqhyQhocDM-769" target="nv5aGaVvqSRqhyQhocDM-773">
                    <mxGeometry relative="1" as="geometry">
                        <mxPoint x="-390.5" y="8720" as="sourcePoint"/>
                        <mxPoint x="-210" y="8720" as="targetPoint"/>
                    </mxGeometry>
                </mxCell>
                <mxCell id="nv5aGaVvqSRqhyQhocDM-778" value="&lt;font style=&quot;font-size: 12px;&quot;&gt;TT=0&lt;/font&gt;" style="whiteSpace=wrap;html=1;fontSize=18;" vertex="1" parent="mvioNwK95yMqdUQ73LqQ-36">
                    <mxGeometry x="607" y="7940" width="120" height="60" as="geometry"/>
                </mxCell>
                <mxCell id="nv5aGaVvqSRqhyQhocDM-779" value="TFT/20=TT&lt;br&gt;TT X 20-TFT=TTT" style="whiteSpace=wrap;html=1;fontSize=12;" vertex="1" parent="mvioNwK95yMqdUQ73LqQ-36">
                    <mxGeometry x="158" y="7940" width="120" height="60" as="geometry"/>
                </mxCell>
                <mxCell id="nv5aGaVvqSRqhyQhocDM-788" value="TTT&amp;gt;=10" style="rhombus;whiteSpace=wrap;html=1;fontSize=12;" vertex="1" parent="mvioNwK95yMqdUQ73LqQ-36">
                    <mxGeometry x="406.37" y="8120" width="80" height="80" as="geometry"/>
                </mxCell>
                <mxCell id="nv5aGaVvqSRqhyQhocDM-793" value="T" style="text;html=1;align=center;verticalAlign=middle;resizable=0;points=[];autosize=1;strokeColor=none;fillColor=none;fontSize=18;" vertex="1" parent="mvioNwK95yMqdUQ73LqQ-36">
                    <mxGeometry x="528" y="8140" width="30" height="40" as="geometry"/>
                </mxCell>
                <mxCell id="nv5aGaVvqSRqhyQhocDM-794" value="" style="edgeStyle=none;html=1;fontSize=12;endArrow=none;" edge="1" parent="mvioNwK95yMqdUQ73LqQ-36" source="nv5aGaVvqSRqhyQhocDM-788" target="nv5aGaVvqSRqhyQhocDM-793">
                    <mxGeometry relative="1" as="geometry">
                        <mxPoint x="647" y="8240" as="targetPoint"/>
                        <mxPoint x="486.3699999999999" y="8160" as="sourcePoint"/>
                        <Array as="points"/>
                    </mxGeometry>
                </mxCell>
                <mxCell id="nv5aGaVvqSRqhyQhocDM-796" value="&lt;font style=&quot;font-size: 12px;&quot;&gt;TTT/10=TB&lt;br&gt;TB X 10-TTT=TTB&lt;/font&gt;" style="whiteSpace=wrap;html=1;fontSize=18;" vertex="1" parent="mvioNwK95yMqdUQ73LqQ-36">
                    <mxGeometry x="205" y="8230" width="120" height="60" as="geometry"/>
                </mxCell>
                <mxCell id="nv5aGaVvqSRqhyQhocDM-797" value="TB=0" style="whiteSpace=wrap;html=1;fontSize=12;" vertex="1" parent="mvioNwK95yMqdUQ73LqQ-36">
                    <mxGeometry x="587" y="8230" width="120" height="60" as="geometry"/>
                </mxCell>
                <mxCell id="nv5aGaVvqSRqhyQhocDM-789" style="edgeStyle=none;html=1;fontSize=12;startArrow=none;entryX=0.5;entryY=0;entryDx=0;entryDy=0;" edge="1" parent="mvioNwK95yMqdUQ73LqQ-36" source="nv5aGaVvqSRqhyQhocDM-793" target="nv5aGaVvqSRqhyQhocDM-797">
                    <mxGeometry relative="1" as="geometry">
                        <mxPoint x="647" y="8230" as="targetPoint"/>
                        <Array as="points">
                            <mxPoint x="647" y="8160"/>
                        </Array>
                    </mxGeometry>
                </mxCell>
                <mxCell id="nv5aGaVvqSRqhyQhocDM-803" value="TTB&amp;gt;=5" style="rhombus;whiteSpace=wrap;html=1;fontSize=12;" vertex="1" parent="mvioNwK95yMqdUQ73LqQ-36">
                    <mxGeometry x="407" y="8390" width="80" height="80" as="geometry"/>
                </mxCell>
                <mxCell id="nv5aGaVvqSRqhyQhocDM-806" value="TTH/5=FB&lt;br&gt;FB X 5-TTB=TFB" style="whiteSpace=wrap;html=1;fontSize=12;" vertex="1" parent="mvioNwK95yMqdUQ73LqQ-36">
                    <mxGeometry x="247" y="8530" width="120" height="60" as="geometry"/>
                </mxCell>
                <mxCell id="nv5aGaVvqSRqhyQhocDM-805" style="edgeStyle=none;html=1;fontSize=12;entryX=0.5;entryY=0;entryDx=0;entryDy=0;startArrow=none;" edge="1" parent="mvioNwK95yMqdUQ73LqQ-36" source="nv5aGaVvqSRqhyQhocDM-825" target="nv5aGaVvqSRqhyQhocDM-806">
                    <mxGeometry relative="1" as="geometry">
                        <mxPoint x="307" y="8540" as="targetPoint"/>
                        <Array as="points">
                            <mxPoint x="307" y="8430"/>
                        </Array>
                    </mxGeometry>
                </mxCell>
                <mxCell id="nv5aGaVvqSRqhyQhocDM-807" value="FB=0" style="whiteSpace=wrap;html=1;fontSize=12;" vertex="1" parent="mvioNwK95yMqdUQ73LqQ-36">
                    <mxGeometry x="564" y="8535" width="103" height="50" as="geometry"/>
                </mxCell>
                <mxCell id="nv5aGaVvqSRqhyQhocDM-804" style="edgeStyle=none;html=1;fontSize=12;entryX=0.5;entryY=0;entryDx=0;entryDy=0;startArrow=none;exitX=0.986;exitY=0.615;exitDx=0;exitDy=0;exitPerimeter=0;" edge="1" parent="mvioNwK95yMqdUQ73LqQ-36" source="nv5aGaVvqSRqhyQhocDM-822" target="nv5aGaVvqSRqhyQhocDM-807">
                    <mxGeometry relative="1" as="geometry">
                        <mxPoint x="617" y="8530" as="targetPoint"/>
                        <mxPoint x="590" y="8420" as="sourcePoint"/>
                        <Array as="points">
                            <mxPoint x="620" y="8425"/>
                        </Array>
                    </mxGeometry>
                </mxCell>
                <mxCell id="nv5aGaVvqSRqhyQhocDM-810" value="" style="shape=waypoint;sketch=0;size=6;pointerEvents=1;points=[];fillColor=none;resizable=0;rotatable=0;perimeter=centerPerimeter;snapToPoint=1;fontSize=12;" vertex="1" parent="mvioNwK95yMqdUQ73LqQ-36">
                    <mxGeometry x="458.5" y="8680" width="20" height="20" as="geometry"/>
                </mxCell>
                <mxCell id="nv5aGaVvqSRqhyQhocDM-811" value="" style="edgeStyle=none;html=1;fontSize=12;endArrow=none;" edge="1" parent="mvioNwK95yMqdUQ73LqQ-36" source="nv5aGaVvqSRqhyQhocDM-806" target="nv5aGaVvqSRqhyQhocDM-810">
                    <mxGeometry relative="1" as="geometry">
                        <mxPoint x="317" y="8730" as="targetPoint"/>
                        <mxPoint x="308.7647058823527" y="8590" as="sourcePoint"/>
                        <Array as="points">
                            <mxPoint x="307" y="8690"/>
                        </Array>
                    </mxGeometry>
                </mxCell>
                <mxCell id="nv5aGaVvqSRqhyQhocDM-812" value="" style="edgeStyle=none;html=1;fontSize=12;endArrow=none;entryX=-0.212;entryY=0.906;entryDx=0;entryDy=0;entryPerimeter=0;" edge="1" parent="mvioNwK95yMqdUQ73LqQ-36" source="nv5aGaVvqSRqhyQhocDM-807" target="nv5aGaVvqSRqhyQhocDM-810">
                    <mxGeometry relative="1" as="geometry">
                        <mxPoint x="457" y="8690" as="targetPoint"/>
                        <mxPoint x="615.5" y="8585" as="sourcePoint"/>
                        <Array as="points">
                            <mxPoint x="616" y="8690"/>
                        </Array>
                    </mxGeometry>
                </mxCell>
                <mxCell id="nv5aGaVvqSRqhyQhocDM-815" value="TFB&amp;gt;=1" style="rhombus;whiteSpace=wrap;html=1;fontSize=12;" vertex="1" parent="mvioNwK95yMqdUQ73LqQ-36">
                    <mxGeometry x="428" y="8750" width="80" height="80" as="geometry"/>
                </mxCell>
                <mxCell id="nv5aGaVvqSRqhyQhocDM-813" style="edgeStyle=none;html=1;fontSize=12;entryX=0.5;entryY=0;entryDx=0;entryDy=0;" edge="1" parent="mvioNwK95yMqdUQ73LqQ-36" source="nv5aGaVvqSRqhyQhocDM-810" target="nv5aGaVvqSRqhyQhocDM-815">
                    <mxGeometry relative="1" as="geometry">
                        <mxPoint x="468.49999999999955" y="8730" as="targetPoint"/>
                    </mxGeometry>
                </mxCell>
                <mxCell id="nv5aGaVvqSRqhyQhocDM-822" value="T" style="text;html=1;align=center;verticalAlign=middle;resizable=0;points=[];autosize=1;strokeColor=none;fillColor=none;fontSize=18;" vertex="1" parent="mvioNwK95yMqdUQ73LqQ-36">
                    <mxGeometry x="543" y="8400" width="30" height="40" as="geometry"/>
                </mxCell>
                <mxCell id="nv5aGaVvqSRqhyQhocDM-823" value="" style="edgeStyle=none;html=1;fontSize=12;entryX=-0.133;entryY=0.662;entryDx=0;entryDy=0;endArrow=none;entryPerimeter=0;" edge="1" parent="mvioNwK95yMqdUQ73LqQ-36" source="nv5aGaVvqSRqhyQhocDM-803" target="nv5aGaVvqSRqhyQhocDM-822">
                    <mxGeometry relative="1" as="geometry">
                        <mxPoint x="-211.5" y="9375" as="targetPoint"/>
                        <mxPoint x="-340.00000000000045" y="9270" as="sourcePoint"/>
                        <Array as="points"/>
                    </mxGeometry>
                </mxCell>
                <mxCell id="nv5aGaVvqSRqhyQhocDM-825" value="F" style="text;html=1;align=center;verticalAlign=middle;resizable=0;points=[];autosize=1;strokeColor=none;fillColor=none;fontSize=18;" vertex="1" parent="mvioNwK95yMqdUQ73LqQ-36">
                    <mxGeometry x="340.12" y="8410" width="30" height="40" as="geometry"/>
                </mxCell>
                <mxCell id="nv5aGaVvqSRqhyQhocDM-826" value="" style="edgeStyle=none;html=1;fontSize=12;entryX=1.192;entryY=0.459;entryDx=0;entryDy=0;endArrow=none;entryPerimeter=0;" edge="1" parent="mvioNwK95yMqdUQ73LqQ-36" source="nv5aGaVvqSRqhyQhocDM-803" target="nv5aGaVvqSRqhyQhocDM-825">
                    <mxGeometry relative="1" as="geometry">
                        <mxPoint x="-513" y="9380" as="targetPoint"/>
                        <mxPoint x="-413" y="9280" as="sourcePoint"/>
                        <Array as="points"/>
                    </mxGeometry>
                </mxCell>
                <mxCell id="nv5aGaVvqSRqhyQhocDM-829" value="T" style="text;html=1;align=center;verticalAlign=middle;resizable=0;points=[];autosize=1;strokeColor=none;fillColor=none;fontSize=18;" vertex="1" parent="mvioNwK95yMqdUQ73LqQ-36">
                    <mxGeometry x="559.5" y="8770" width="30" height="40" as="geometry"/>
                </mxCell>
                <mxCell id="nv5aGaVvqSRqhyQhocDM-830" value="" style="edgeStyle=none;html=1;fontSize=12;endArrow=none;" edge="1" parent="mvioNwK95yMqdUQ73LqQ-36" source="nv5aGaVvqSRqhyQhocDM-815" target="nv5aGaVvqSRqhyQhocDM-829">
                    <mxGeometry relative="1" as="geometry">
                        <mxPoint x="640" y="8860" as="targetPoint"/>
                        <mxPoint x="505.8021978021975" y="8787.802197802197" as="sourcePoint"/>
                        <Array as="points"/>
                    </mxGeometry>
                </mxCell>
                <mxCell id="nv5aGaVvqSRqhyQhocDM-827" value="F" style="text;html=1;align=center;verticalAlign=middle;resizable=0;points=[];autosize=1;strokeColor=none;fillColor=none;fontSize=18;" vertex="1" parent="mvioNwK95yMqdUQ73LqQ-36">
                    <mxGeometry x="351" y="8770" width="30" height="40" as="geometry"/>
                </mxCell>
                <mxCell id="nv5aGaVvqSRqhyQhocDM-828" value="" style="edgeStyle=none;html=1;fontSize=12;endArrow=none;" edge="1" parent="mvioNwK95yMqdUQ73LqQ-36" source="nv5aGaVvqSRqhyQhocDM-815" target="nv5aGaVvqSRqhyQhocDM-827">
                    <mxGeometry relative="1" as="geometry">
                        <mxPoint x="310" y="8840" as="targetPoint"/>
                        <mxPoint x="430.3809523809523" y="8787.619047619048" as="sourcePoint"/>
                        <Array as="points"/>
                    </mxGeometry>
                </mxCell>
                <mxCell id="nv5aGaVvqSRqhyQhocDM-831" value="&lt;font style=&quot;font-size: 12px;&quot;&gt;TFB/1=OB&lt;br&gt;OB X 1-TFB=TOB&lt;br&gt;&lt;/font&gt;" style="whiteSpace=wrap;html=1;fontSize=18;" vertex="1" parent="mvioNwK95yMqdUQ73LqQ-36">
                    <mxGeometry x="250.12" y="8850" width="120" height="60" as="geometry"/>
                </mxCell>
                <mxCell id="nv5aGaVvqSRqhyQhocDM-816" style="edgeStyle=none;html=1;fontSize=12;startArrow=none;entryX=0.5;entryY=0;entryDx=0;entryDy=0;" edge="1" parent="mvioNwK95yMqdUQ73LqQ-36" source="nv5aGaVvqSRqhyQhocDM-827" target="nv5aGaVvqSRqhyQhocDM-831">
                    <mxGeometry relative="1" as="geometry">
                        <mxPoint x="310" y="8850" as="targetPoint"/>
                        <Array as="points">
                            <mxPoint x="310" y="8790"/>
                        </Array>
                    </mxGeometry>
                </mxCell>
                <mxCell id="nv5aGaVvqSRqhyQhocDM-832" value="OB=0" style="whiteSpace=wrap;html=1;fontSize=12;" vertex="1" parent="mvioNwK95yMqdUQ73LqQ-36">
                    <mxGeometry x="578" y="8850" width="120" height="60" as="geometry"/>
                </mxCell>
                <mxCell id="nv5aGaVvqSRqhyQhocDM-817" style="edgeStyle=none;html=1;fontSize=12;startArrow=none;entryX=0.5;entryY=0;entryDx=0;entryDy=0;" edge="1" parent="mvioNwK95yMqdUQ73LqQ-36" source="nv5aGaVvqSRqhyQhocDM-829" target="nv5aGaVvqSRqhyQhocDM-832">
                    <mxGeometry relative="1" as="geometry">
                        <mxPoint x="640" y="8860" as="targetPoint"/>
                        <Array as="points">
                            <mxPoint x="640" y="8790"/>
                        </Array>
                    </mxGeometry>
                </mxCell>
                <mxCell id="nv5aGaVvqSRqhyQhocDM-839" value="จำนวนสินค้าที่ลูกค้าจะได้รับ&lt;br&gt;จำนวนกาอเมริกาโน่ที่ออกไป=FMAGA/35&lt;br&gt;จำนวนลาเต้เย็ยที่ออกไป=FRATE/25&lt;br&gt;จำนวนน้ำเปล่าที่ออกไป=FPAO/10&lt;br&gt;จำนวนขนมชั้นที่ออกไป=FSUNSS/5&lt;br&gt;จำนวนฝอยทองที่ออกไป=FFOY/20&lt;br&gt;จำนวนลำไยอบแห้งที่ออกไป=FLUMYAI/50" style="shape=parallelogram;perimeter=parallelogramPerimeter;whiteSpace=wrap;html=1;fixedSize=1;fontSize=12;" vertex="1" parent="mvioNwK95yMqdUQ73LqQ-36">
                    <mxGeometry x="315" y="9051.5" width="330" height="150" as="geometry"/>
                </mxCell>
                <mxCell id="nv5aGaVvqSRqhyQhocDM-841" value="ประเภทเงินทอนและจำนวนที่ทอนไป&lt;br&gt;จำนวนแบงค์ห้าร้อยที่ทอนไป=FH&lt;br&gt;จำนวนแบงค์ร้อยที่ทอนไป=OH&lt;br&gt;จำนวนแบงค์ห้าสิบที่ทอนไป=FT&lt;br&gt;จำนวนแบงค์ยี่สิบที่ทอนไป=TT&lt;br&gt;จำนวนเหรียญสิบที่ทอนไป=TB&lt;br&gt;จำนวนเหรียญห้าที่ทอนไป=FB&lt;br&gt;จำนวนเหรียญบาททอนไป=OB" style="shape=parallelogram;perimeter=parallelogramPerimeter;whiteSpace=wrap;html=1;fixedSize=1;fontSize=12;" vertex="1" parent="mvioNwK95yMqdUQ73LqQ-36">
                    <mxGeometry x="327.25" y="9240" width="282.5" height="140" as="geometry"/>
                </mxCell>
                <mxCell id="nv5aGaVvqSRqhyQhocDM-840" style="edgeStyle=none;html=1;fontSize=12;entryX=0.5;entryY=0;entryDx=0;entryDy=0;" edge="1" parent="mvioNwK95yMqdUQ73LqQ-36" source="nv5aGaVvqSRqhyQhocDM-839" target="nv5aGaVvqSRqhyQhocDM-841">
                    <mxGeometry relative="1" as="geometry">
                        <mxPoint x="468" y="9230" as="targetPoint"/>
                    </mxGeometry>
                </mxCell>
                <mxCell id="nv5aGaVvqSRqhyQhocDM-845" value="สินค้าแต่ละประเภทที่เหลืออยู่&lt;br&gt;จำนวนกาอเมริกาโน่ที่ออกไป=FMAGA/35&lt;br&gt;จำนวนลาเต้เย็ยที่ออกไป=FRATE/25&lt;br&gt;จำนวนน้ำเปล่าที่ออกไป=FPAO/10&lt;br&gt;จำนวนขนมชั้นที่ออกไป=FSUNSS/5&lt;br&gt;จำนวนฝอยทองที่ออกไป=FFOY/20&lt;br&gt;จำนวนลำไยอบแห้งที่ออกไป=FLUMYAI/50" style="shape=parallelogram;perimeter=parallelogramPerimeter;whiteSpace=wrap;html=1;fixedSize=1;fontSize=12;" vertex="1" parent="mvioNwK95yMqdUQ73LqQ-36">
                    <mxGeometry x="303" y="9460" width="330" height="150" as="geometry"/>
                </mxCell>
                <mxCell id="nv5aGaVvqSRqhyQhocDM-842" style="edgeStyle=none;html=1;fontSize=12;entryX=0.5;entryY=0;entryDx=0;entryDy=0;" edge="1" parent="mvioNwK95yMqdUQ73LqQ-36" source="nv5aGaVvqSRqhyQhocDM-841" target="nv5aGaVvqSRqhyQhocDM-845">
                    <mxGeometry relative="1" as="geometry">
                        <mxPoint x="468.5" y="9420" as="targetPoint"/>
                        <Array as="points">
                            <mxPoint x="469" y="9410"/>
                        </Array>
                    </mxGeometry>
                </mxCell>
                <mxCell id="nv5aGaVvqSRqhyQhocDM-1219" style="edgeStyle=none;html=1;entryX=0.5;entryY=0;entryDx=0;entryDy=0;fontSize=12;" edge="1" parent="mvioNwK95yMqdUQ73LqQ-36" source="nv5aGaVvqSRqhyQhocDM-1217" target="nv5aGaVvqSRqhyQhocDM-1218">
                    <mxGeometry relative="1" as="geometry"/>
                </mxCell>
                <mxCell id="nv5aGaVvqSRqhyQhocDM-1217" value="จำนวนแบงค์และเหรียญแต่ละประเภทที่เหลืออยู่&lt;br&gt;จำนวนแบงค์ห้าร้อยที่ทอนไป=FH&lt;br&gt;จำนวนแบงค์ร้อยที่ทอนไป=OH&lt;br&gt;จำนวนแบงค์ห้าสิบที่ทอนไป=FT&lt;br&gt;จำนวนแบงค์ยี่สิบที่ทอนไป=TT&lt;br&gt;จำนวนเหรียญสิบที่ทอนไป=TB&lt;br&gt;จำนวนเหรียญห้าที่ทอนไป=FB&lt;br&gt;จำนวนเหรียญบาททอนไป=OB" style="shape=parallelogram;perimeter=parallelogramPerimeter;whiteSpace=wrap;html=1;fixedSize=1;fontSize=12;" vertex="1" parent="mvioNwK95yMqdUQ73LqQ-36">
                    <mxGeometry x="327.25" y="9740" width="282.5" height="140" as="geometry"/>
                </mxCell>
                <mxCell id="nv5aGaVvqSRqhyQhocDM-846" style="edgeStyle=none;html=1;fontSize=12;entryX=0.5;entryY=0;entryDx=0;entryDy=0;" edge="1" parent="mvioNwK95yMqdUQ73LqQ-36" source="nv5aGaVvqSRqhyQhocDM-845" target="nv5aGaVvqSRqhyQhocDM-1217">
                    <mxGeometry relative="1" as="geometry">
                        <mxPoint x="468" y="9710" as="targetPoint"/>
                    </mxGeometry>
                </mxCell>
                <mxCell id="nv5aGaVvqSRqhyQhocDM-1218" value="จำนวนกำไร&lt;br&gt;=5xFMAGA/35 + 6xFRATE/25 + 2xFPAOMO + 3xFSUMSS/5 + TFFOY/20 + 10XFLUMYAI/50" style="shape=parallelogram;perimeter=parallelogramPerimeter;whiteSpace=wrap;html=1;fixedSize=1;fontSize=12;" vertex="1" parent="mvioNwK95yMqdUQ73LqQ-36">
                    <mxGeometry x="318.5" y="9960" width="300" height="100" as="geometry"/>
                </mxCell>
                <mxCell id="nv5aGaVvqSRqhyQhocDM-1227" style="edgeStyle=none;html=1;entryX=0.5;entryY=0;entryDx=0;entryDy=0;fontSize=12;" edge="1" parent="mvioNwK95yMqdUQ73LqQ-36" source="nv5aGaVvqSRqhyQhocDM-1226" target="558">
                    <mxGeometry relative="1" as="geometry"/>
                </mxCell>
                <mxCell id="nv5aGaVvqSRqhyQhocDM-1226" value="&lt;font style=&quot;font-size: 12px;&quot;&gt;กรุณากดจำนวนที่ต้องการ&lt;/font&gt;" style="shape=parallelogram;perimeter=parallelogramPerimeter;whiteSpace=wrap;html=1;fixedSize=1;fontSize=24;" vertex="1" parent="mvioNwK95yMqdUQ73LqQ-36">
                    <mxGeometry x="627" y="4700" width="120" height="60" as="geometry"/>
                </mxCell>
                <mxCell id="nv5aGaVvqSRqhyQhocDM-1229" style="edgeStyle=none;html=1;fontSize=12;" edge="1" parent="mvioNwK95yMqdUQ73LqQ-36" source="nv5aGaVvqSRqhyQhocDM-1228">
                    <mxGeometry relative="1" as="geometry">
                        <mxPoint x="688" y="4080" as="targetPoint"/>
                    </mxGeometry>
                </mxCell>
                <mxCell id="nv5aGaVvqSRqhyQhocDM-1228" value="&lt;font style=&quot;font-size: 12px;&quot;&gt;กรุณากดจำนวนที่ต้องการ&lt;/font&gt;" style="shape=parallelogram;perimeter=parallelogramPerimeter;whiteSpace=wrap;html=1;fixedSize=1;fontSize=24;" vertex="1" parent="mvioNwK95yMqdUQ73LqQ-36">
                    <mxGeometry x="633" y="3960" width="120" height="60" as="geometry"/>
                </mxCell>
                <mxCell id="nv5aGaVvqSRqhyQhocDM-1232" style="edgeStyle=none;html=1;entryX=0.5;entryY=0;entryDx=0;entryDy=0;fontSize=12;" edge="1" parent="mvioNwK95yMqdUQ73LqQ-36" source="nv5aGaVvqSRqhyQhocDM-1230" target="272">
                    <mxGeometry relative="1" as="geometry"/>
                </mxCell>
                <mxCell id="nv5aGaVvqSRqhyQhocDM-1230" value="&lt;font style=&quot;font-size: 12px;&quot;&gt;กรุณากดจำนวนที่ต้องการ&lt;/font&gt;" style="shape=parallelogram;perimeter=parallelogramPerimeter;whiteSpace=wrap;html=1;fixedSize=1;fontSize=24;" vertex="1" parent="mvioNwK95yMqdUQ73LqQ-36">
                    <mxGeometry x="578" y="2810" width="120" height="60" as="geometry"/>
                </mxCell>
                <mxCell id="nv5aGaVvqSRqhyQhocDM-1234" style="edgeStyle=none;html=1;entryX=0.5;entryY=0;entryDx=0;entryDy=0;fontSize=12;" edge="1" parent="mvioNwK95yMqdUQ73LqQ-36" source="nv5aGaVvqSRqhyQhocDM-1233" target="257">
                    <mxGeometry relative="1" as="geometry"/>
                </mxCell>
                <mxCell id="nv5aGaVvqSRqhyQhocDM-1233" value="&lt;font style=&quot;font-size: 12px;&quot;&gt;กรุณากดจำนวนที่ต้องการ&lt;/font&gt;" style="shape=parallelogram;perimeter=parallelogramPerimeter;whiteSpace=wrap;html=1;fixedSize=1;fontSize=24;" vertex="1" parent="mvioNwK95yMqdUQ73LqQ-36">
                    <mxGeometry x="578" y="1910" width="120" height="60" as="geometry"/>
                </mxCell>
                <mxCell id="nv5aGaVvqSRqhyQhocDM-776" value="F" style="text;html=1;align=center;verticalAlign=middle;resizable=0;points=[];autosize=1;strokeColor=none;fillColor=none;fontSize=18;" vertex="1" parent="mvioNwK95yMqdUQ73LqQ-36">
                    <mxGeometry x="267" y="7860" width="30" height="40" as="geometry"/>
                </mxCell>
                <mxCell id="nv5aGaVvqSRqhyQhocDM-777" value="" style="edgeStyle=none;html=1;exitX=0;exitY=0.5;exitDx=0;exitDy=0;fontSize=18;endArrow=none;" edge="1" parent="mvioNwK95yMqdUQ73LqQ-36" source="nv5aGaVvqSRqhyQhocDM-769" target="nv5aGaVvqSRqhyQhocDM-776">
                    <mxGeometry relative="1" as="geometry">
                        <mxPoint x="200" y="7860.235294117647" as="targetPoint"/>
                        <mxPoint x="359.5" y="7860" as="sourcePoint"/>
                    </mxGeometry>
                </mxCell>
                <mxCell id="nv5aGaVvqSRqhyQhocDM-775" style="edgeStyle=none;html=1;exitX=0;exitY=0.5;exitDx=0;exitDy=0;fontSize=18;startArrow=none;entryX=0.5;entryY=0;entryDx=0;entryDy=0;" edge="1" parent="mvioNwK95yMqdUQ73LqQ-36" source="nv5aGaVvqSRqhyQhocDM-776" target="nv5aGaVvqSRqhyQhocDM-779">
                    <mxGeometry relative="1" as="geometry">
                        <mxPoint x="180" y="7920" as="targetPoint"/>
                        <Array as="points">
                            <mxPoint x="221" y="7880"/>
                        </Array>
                    </mxGeometry>
                </mxCell>
                <mxCell id="nv5aGaVvqSRqhyQhocDM-757" value="&lt;span style=&quot;font-size: 18px;&quot;&gt;F&lt;/span&gt;" style="text;html=1;align=center;verticalAlign=middle;resizable=0;points=[];autosize=1;strokeColor=none;fillColor=none;fontSize=12;" vertex="1" parent="mvioNwK95yMqdUQ73LqQ-36">
                    <mxGeometry x="257" y="7570" width="30" height="40" as="geometry"/>
                </mxCell>
                <mxCell id="nv5aGaVvqSRqhyQhocDM-760" value="" style="edgeStyle=none;html=1;fontSize=12;endArrow=none;" edge="1" parent="mvioNwK95yMqdUQ73LqQ-36" source="nv5aGaVvqSRqhyQhocDM-754" target="nv5aGaVvqSRqhyQhocDM-757">
                    <mxGeometry relative="1" as="geometry">
                        <mxPoint x="220" y="7630" as="targetPoint"/>
                        <mxPoint x="343.1199999999999" y="7570" as="sourcePoint"/>
                        <Array as="points"/>
                    </mxGeometry>
                </mxCell>
                <mxCell id="nv5aGaVvqSRqhyQhocDM-756" style="edgeStyle=none;html=1;fontSize=12;startArrow=none;entryX=0.5;entryY=0;entryDx=0;entryDy=0;" edge="1" parent="mvioNwK95yMqdUQ73LqQ-36" source="nv5aGaVvqSRqhyQhocDM-757" target="nv5aGaVvqSRqhyQhocDM-762">
                    <mxGeometry relative="1" as="geometry">
                        <mxPoint x="220" y="7630" as="targetPoint"/>
                        <Array as="points">
                            <mxPoint x="218" y="7590"/>
                        </Array>
                    </mxGeometry>
                </mxCell>
                <mxCell id="nv5aGaVvqSRqhyQhocDM-791" value="&lt;font style=&quot;font-size: 18px;&quot;&gt;F&lt;/font&gt;" style="text;html=1;align=center;verticalAlign=middle;resizable=0;points=[];autosize=1;strokeColor=none;fillColor=none;fontSize=12;" vertex="1" parent="mvioNwK95yMqdUQ73LqQ-36">
                    <mxGeometry x="326.5" y="8140" width="30" height="40" as="geometry"/>
                </mxCell>
                <mxCell id="nv5aGaVvqSRqhyQhocDM-792" value="" style="edgeStyle=none;html=1;fontSize=12;endArrow=none;" edge="1" parent="mvioNwK95yMqdUQ73LqQ-36" source="nv5aGaVvqSRqhyQhocDM-788" target="nv5aGaVvqSRqhyQhocDM-791">
                    <mxGeometry relative="1" as="geometry">
                        <mxPoint x="270" y="8230" as="targetPoint"/>
                        <mxPoint x="409.3699999999999" y="8140" as="sourcePoint"/>
                        <Array as="points"/>
                    </mxGeometry>
                </mxCell>
                <mxCell id="nv5aGaVvqSRqhyQhocDM-790" style="edgeStyle=none;html=1;fontSize=12;startArrow=none;entryX=0.5;entryY=0;entryDx=0;entryDy=0;" edge="1" parent="mvioNwK95yMqdUQ73LqQ-36" source="nv5aGaVvqSRqhyQhocDM-791" target="nv5aGaVvqSRqhyQhocDM-796">
                    <mxGeometry relative="1" as="geometry">
                        <mxPoint x="270" y="8210" as="targetPoint"/>
                        <mxPoint x="340" y="8130" as="sourcePoint"/>
                        <Array as="points">
                            <mxPoint x="270" y="8160"/>
                        </Array>
                    </mxGeometry>
                </mxCell>
                <mxCell id="jIR7DSRb_jp3hbyWwMM5-731" value="" style="edgeStyle=none;html=1;fontSize=12;endArrow=none;" edge="1" parent="mvioNwK95yMqdUQ73LqQ-36" source="714" target="jIR7DSRb_jp3hbyWwMM5-730">
                    <mxGeometry relative="1" as="geometry">
                        <mxPoint x="-719.5" y="7400" as="targetPoint"/>
                        <mxPoint x="-488.75" y="7320" as="sourcePoint"/>
                        <Array as="points"/>
                    </mxGeometry>
                </mxCell>
                <mxCell id="jIR7DSRb_jp3hbyWwMM5-730" value="&lt;font style=&quot;font-size: 18px;&quot;&gt;F&lt;/font&gt;" style="text;html=1;align=center;verticalAlign=middle;resizable=0;points=[];autosize=1;strokeColor=none;fillColor=none;fontSize=12;" vertex="1" parent="mvioNwK95yMqdUQ73LqQ-36">
                    <mxGeometry x="218" y="6490" width="30" height="40" as="geometry"/>
                </mxCell>
                <mxCell id="jIR7DSRb_jp3hbyWwMM5-732" value="T" style="text;html=1;align=center;verticalAlign=middle;resizable=0;points=[];autosize=1;strokeColor=none;fillColor=none;fontSize=18;" vertex="1" parent="mvioNwK95yMqdUQ73LqQ-36">
                    <mxGeometry x="508" y="6490" width="30" height="40" as="geometry"/>
                </mxCell>
                <mxCell id="jIR7DSRb_jp3hbyWwMM5-733" value="" style="edgeStyle=none;html=1;fontSize=12;entryX=-0.002;entryY=0.556;entryDx=0;entryDy=0;endArrow=none;entryPerimeter=0;" edge="1" parent="mvioNwK95yMqdUQ73LqQ-36" source="714" target="jIR7DSRb_jp3hbyWwMM5-732">
                    <mxGeometry relative="1" as="geometry">
                        <mxPoint x="-231.00000000000045" y="7499" as="targetPoint"/>
                        <mxPoint x="-363.25" y="7320" as="sourcePoint"/>
                        <Array as="points"/>
                    </mxGeometry>
                </mxCell>
                <mxCell id="jIR7DSRb_jp3hbyWwMM5-735" value="" style="edgeStyle=none;html=1;fontSize=12;endArrow=none;" edge="1" parent="mvioNwK95yMqdUQ73LqQ-36" source="718" target="jIR7DSRb_jp3hbyWwMM5-734">
                    <mxGeometry relative="1" as="geometry">
                        <mxPoint x="-492" y="7610" as="targetPoint"/>
                        <mxPoint x="-291.7172707241093" y="7549.231745308109" as="sourcePoint"/>
                        <Array as="points"/>
                    </mxGeometry>
                </mxCell>
                <mxCell id="jIR7DSRb_jp3hbyWwMM5-734" value="F" style="text;html=1;align=center;verticalAlign=middle;resizable=0;points=[];autosize=1;strokeColor=none;fillColor=none;fontSize=18;" vertex="1" parent="mvioNwK95yMqdUQ73LqQ-36">
                    <mxGeometry x="437" y="6719" width="30" height="40" as="geometry"/>
                </mxCell>
                <mxCell id="jIR7DSRb_jp3hbyWwMM5-736" value="T" style="text;html=1;align=center;verticalAlign=middle;resizable=0;points=[];autosize=1;strokeColor=none;fillColor=none;fontSize=18;" vertex="1" parent="mvioNwK95yMqdUQ73LqQ-36">
                    <mxGeometry x="672" y="6719" width="30" height="40" as="geometry"/>
                </mxCell>
                <mxCell id="jIR7DSRb_jp3hbyWwMM5-737" value="" style="edgeStyle=none;html=1;fontSize=12;endArrow=none;entryX=-0.063;entryY=0.487;entryDx=0;entryDy=0;entryPerimeter=0;" edge="1" parent="mvioNwK95yMqdUQ73LqQ-36" source="718" target="jIR7DSRb_jp3hbyWwMM5-736">
                    <mxGeometry relative="1" as="geometry">
                        <mxPoint x="660" y="6739" as="targetPoint"/>
                        <mxPoint x="-183.60890198003653" y="7549.4990999836355" as="sourcePoint"/>
                        <Array as="points"/>
                    </mxGeometry>
                </mxCell>
                <mxCell id="jIR7DSRb_jp3hbyWwMM5-738" value="F" style="text;html=1;align=center;verticalAlign=middle;resizable=0;points=[];autosize=1;strokeColor=none;fillColor=none;fontSize=18;" vertex="1" parent="mvioNwK95yMqdUQ73LqQ-36">
                    <mxGeometry x="208" y="2670" width="30" height="40" as="geometry"/>
                </mxCell>
                <mxCell id="jIR7DSRb_jp3hbyWwMM5-740" value="" style="edgeStyle=none;html=1;fontSize=12;entryX=1.067;entryY=0.465;entryDx=0;entryDy=0;endArrow=none;entryPerimeter=0;" edge="1" parent="mvioNwK95yMqdUQ73LqQ-36" source="262" target="jIR7DSRb_jp3hbyWwMM5-738">
                    <mxGeometry relative="1" as="geometry">
                        <mxPoint x="-702" y="3640" as="targetPoint"/>
                        <mxPoint x="-505" y="3500" as="sourcePoint"/>
                        <Array as="points"/>
                    </mxGeometry>
                </mxCell>
                <mxCell id="jIR7DSRb_jp3hbyWwMM5-741" value="T" style="text;html=1;align=center;verticalAlign=middle;resizable=0;points=[];autosize=1;strokeColor=none;fillColor=none;fontSize=18;" vertex="1" parent="mvioNwK95yMqdUQ73LqQ-36">
                    <mxGeometry x="508" y="2670" width="30" height="40" as="geometry"/>
                </mxCell>
                <mxCell id="jIR7DSRb_jp3hbyWwMM5-742" value="" style="edgeStyle=none;html=1;fontSize=12;entryX=-0.096;entryY=0.488;entryDx=0;entryDy=0;endArrow=none;entryPerimeter=0;" edge="1" parent="mvioNwK95yMqdUQ73LqQ-36" source="262" target="jIR7DSRb_jp3hbyWwMM5-741">
                    <mxGeometry relative="1" as="geometry">
                        <mxPoint x="-192" y="3620" as="targetPoint"/>
                        <mxPoint x="-380.5" y="3500" as="sourcePoint"/>
                        <Array as="points"/>
                    </mxGeometry>
                </mxCell>
                <mxCell id="366" value="" style="shape=waypoint;sketch=0;size=6;pointerEvents=1;points=[];fillColor=none;resizable=0;rotatable=0;perimeter=centerPerimeter;snapToPoint=1;fontSize=12;" vertex="1" parent="mvioNwK95yMqdUQ73LqQ-36">
                    <mxGeometry x="403.25" y="4150" width="20" height="20" as="geometry"/>
                </mxCell>
                <mxCell id="370" style="edgeStyle=none;html=1;fontSize=12;entryX=0.5;entryY=0;entryDx=0;entryDy=0;" edge="1" parent="mvioNwK95yMqdUQ73LqQ-36" source="366" target="371">
                    <mxGeometry relative="1" as="geometry">
                        <mxPoint x="413" y="4380" as="targetPoint"/>
                    </mxGeometry>
                </mxCell>
                <mxCell id="369" value="" style="edgeStyle=none;html=1;fontSize=12;endArrow=none;entryX=0.393;entryY=0.982;entryDx=0;entryDy=0;entryPerimeter=0;" edge="1" parent="mvioNwK95yMqdUQ73LqQ-36" source="360" target="366">
                    <mxGeometry relative="1" as="geometry">
                        <mxPoint x="410" y="4210" as="targetPoint"/>
                        <mxPoint x="127.64285714285688" y="4160" as="sourcePoint"/>
                        <Array as="points">
                            <mxPoint x="120" y="4150"/>
                        </Array>
                    </mxGeometry>
                </mxCell>
                <mxCell id="556" value="" style="edgeStyle=none;html=1;fontSize=12;endArrow=none;entryX=0.5;entryY=1;entryDx=0;entryDy=0;entryPerimeter=0;" edge="1" parent="mvioNwK95yMqdUQ73LqQ-36" source="552" target="366">
                    <mxGeometry relative="1" as="geometry">
                        <mxPoint x="416" y="4200" as="targetPoint"/>
                        <mxPoint x="689.9999999999995" y="4200" as="sourcePoint"/>
                        <Array as="points">
                            <mxPoint x="687" y="4160"/>
                        </Array>
                    </mxGeometry>
                </mxCell>
                <mxCell id="mvioNwK95yMqdUQ73LqQ-70" value="&lt;font data-font-src=&quot;https://fonts.googleapis.com/css?family=Sarabun&quot; face=&quot;Sarabun&quot;&gt;โจทย์ปัญหา&lt;/font&gt;" style="swimlane;whiteSpace=wrap;html=1;" parent="WIyWlLk6GJQsqaUBKTNV-1" vertex="1">
                    <mxGeometry x="-740" y="320" width="645" height="310" as="geometry"/>
                </mxCell>
                <mxCell id="mvioNwK95yMqdUQ73LqQ-71" value="&lt;p style=&quot;line-height: 120%;&quot;&gt;&lt;font data-font-src=&quot;https://fonts.googleapis.com/css?family=Sarabun&quot; face=&quot;Sarabun&quot; style=&quot;font-size: 14px;&quot;&gt;&lt;b&gt;&lt;u&gt;โจทย์&lt;/u&gt;&lt;/b&gt; จงเขียน Flowchart เพื่อแสดงขั้นตอนการทำงาน ของเครื่องขายน้ำอัตโนมัติ โดยเครื่องมีการทำงานดังนี้&lt;br&gt;&amp;nbsp; &amp;nbsp; - เครื่องมีสินค้าประเภท &quot;เครื่องดื่ม&quot; อยู่ 3 อย่างคือ กาแฟอเมริกาโน่ร้อน , ลาเต้เย็น , น้ำเปล่า&lt;br&gt;&amp;nbsp; &amp;nbsp; - เครื่องมีสินค้าประเภท &quot;ขนม&quot; อยู่ 3 อย่างคือ ขนมชั้น, ฝอยทอง, ลำไยอบแห้ง&lt;br&gt;&amp;nbsp; &amp;nbsp; - เครื่องสามารถทอนเงินลูกค้าได้ทั้ง เหรียญ และ ธนบัตร (โดยจะต้องเลือกทอนเงินด้วยธนบัตรใหญ่ก่อน)&lt;br&gt;&lt;/font&gt;&lt;span style=&quot;font-family: Sarabun; background-color: initial;&quot;&gt;&amp;nbsp; &amp;nbsp; &amp;nbsp; &amp;nbsp;กรณีที่มีเงินทอนไม่พอ ให้แจ้งลูกค้าก่อนซื้อสินค้าว่า &quot;เครื่องไม่มีเงิน&quot;&lt;br&gt;&amp;nbsp; &amp;nbsp; -&amp;nbsp; เครื่องสามารถแสดงจำนวนสินค้าคงเหลือ ราคาสินค้า จำนวนสินค้าที่ลูกค้าสั่ง และรวมราคาที่ลูกค้าต้องจ่าย&lt;br&gt;&lt;/span&gt;&lt;span style=&quot;font-family: Sarabun; background-color: initial;&quot;&gt;&lt;b&gt;&lt;u&gt;เหตุการณ์&lt;/u&gt;&lt;/b&gt;&lt;br&gt;&amp;nbsp; &amp;nbsp; &lt;b&gt;ลูกค้า&lt;/b&gt;สามารถเลือกสินค้ากี่ชิ้นก็ได้ จนกว่าลูกค้าจะพอใจ เมื่อพอใจแล้ว สามารถกดปุ่ม &quot;ตกลง&quot; เพื่อคำนวณ&lt;br&gt;ยอดเงินทั้งหมดที่ลูกค้าต้องชำระ และลูกค้าต้องใส่เงินไปตามจำนวน(หรือมากกว่า) เพื่อทำการชำระสินค้า&lt;br&gt;และตู้ก็จะทอนเงินให้ลูกค้า พร้อมส่งสินค้าให้ลูกค้า&lt;br&gt;&amp;nbsp; &amp;nbsp; &lt;b&gt;แอ็ดมิน&lt;/b&gt;สามารถได้รับการแจ้งเตือนทุกครั้งที่มีลูกค้ากดซื้อสินค้าหน้าตู้ โดยจะมีข้อมูลสรุปกำไรทั้งหมด จำนวน&lt;br&gt;เงินทอนคงเหลือ(ว่าเหลือแต่ละเหรียญและธนบัตรอยู่ทั้งหมดอย่างละเท่าไหร่)&lt;/span&gt;&lt;/p&gt;" style="text;html=1;align=left;verticalAlign=top;resizable=0;points=[];autosize=1;strokeColor=none;fillColor=none;fontSize=14;" parent="mvioNwK95yMqdUQ73LqQ-70" vertex="1">
                    <mxGeometry x="15" y="20" width="630" height="260" as="geometry"/>
                </mxCell>
                <mxCell id="276" value="" style="edgeStyle=none;html=1;fontSize=12;endArrow=none;" edge="1" parent="WIyWlLk6GJQsqaUBKTNV-1" source="272" target="275">
                    <mxGeometry relative="1" as="geometry">
                        <mxPoint x="-410" y="3970" as="targetPoint"/>
                        <mxPoint x="-180.00000000000045" y="3890" as="sourcePoint"/>
                        <Array as="points">
                            <mxPoint x="-190" y="3890"/>
                        </Array>
                    </mxGeometry>
                </mxCell>
                <mxCell id="277" value="" style="edgeStyle=none;html=1;fontSize=12;endArrow=none;entryX=0.364;entryY=0.553;entryDx=0;entryDy=0;entryPerimeter=0;" edge="1" parent="WIyWlLk6GJQsqaUBKTNV-1" source="269" target="275">
                    <mxGeometry relative="1" as="geometry">
                        <mxPoint x="-420" y="3970" as="targetPoint"/>
                        <mxPoint x="-690" y="3790" as="sourcePoint"/>
                        <Array as="points">
                            <mxPoint x="-690" y="3890"/>
                        </Array>
                    </mxGeometry>
                </mxCell>
                <mxCell id="278" style="edgeStyle=none;html=1;fontSize=12;entryX=0.5;entryY=0;entryDx=0;entryDy=0;" edge="1" parent="WIyWlLk6GJQsqaUBKTNV-1" source="275" target="279">
                    <mxGeometry relative="1" as="geometry">
                        <mxPoint x="-404" y="4060" as="targetPoint"/>
                    </mxGeometry>
                </mxCell>
                <mxCell id="275" value="" style="shape=waypoint;sketch=0;size=6;pointerEvents=1;points=[];fillColor=none;resizable=0;rotatable=0;perimeter=centerPerimeter;snapToPoint=1;fontSize=12;" vertex="1" parent="WIyWlLk6GJQsqaUBKTNV-1">
                    <mxGeometry x="-433" y="3880" width="20" height="20" as="geometry"/>
                </mxCell>
                <mxCell id="562" value="" style="edgeStyle=none;html=1;fontSize=12;endArrow=none;entryX=0.393;entryY=0.782;entryDx=0;entryDy=0;entryPerimeter=0;" edge="1" parent="WIyWlLk6GJQsqaUBKTNV-1" source="558" target="561">
                    <mxGeometry relative="1" as="geometry">
                        <mxPoint x="-320" y="5780" as="targetPoint"/>
                        <mxPoint x="-194" y="5740.847457627119" as="sourcePoint"/>
                        <Array as="points">
                            <mxPoint x="-140" y="5790"/>
                        </Array>
                    </mxGeometry>
                </mxCell>
                <mxCell id="563" value="" style="edgeStyle=none;html=1;fontSize=12;endArrow=none;" edge="1" parent="WIyWlLk6GJQsqaUBKTNV-1" source="549" target="561">
                    <mxGeometry relative="1" as="geometry">
                        <mxPoint x="-380" y="5710" as="targetPoint"/>
                        <mxPoint x="-689" y="5640" as="sourcePoint"/>
                        <Array as="points">
                            <mxPoint x="-690" y="5680"/>
                        </Array>
                    </mxGeometry>
                </mxCell>
                <mxCell id="564" style="edgeStyle=none;html=1;fontSize=12;entryX=0.5;entryY=0;entryDx=0;entryDy=0;" edge="1" parent="WIyWlLk6GJQsqaUBKTNV-1" source="561" target="565">
                    <mxGeometry relative="1" as="geometry">
                        <mxPoint x="-420" y="5920" as="targetPoint"/>
                    </mxGeometry>
                </mxCell>
                <mxCell id="561" value="" style="shape=waypoint;sketch=0;size=6;pointerEvents=1;points=[];fillColor=none;resizable=0;rotatable=0;perimeter=centerPerimeter;snapToPoint=1;fontSize=12;" vertex="1" parent="WIyWlLk6GJQsqaUBKTNV-1">
                    <mxGeometry x="-430" y="5780" width="20" height="20" as="geometry"/>
                </mxCell>
                <mxCell id="696" style="edgeStyle=none;html=1;fontSize=12;startArrow=none;entryX=0.5;entryY=0;entryDx=0;entryDy=0;" edge="1" parent="WIyWlLk6GJQsqaUBKTNV-1" source="699" target="702">
                    <mxGeometry relative="1" as="geometry">
                        <mxPoint x="-417" y="6690" as="targetPoint"/>
                    </mxGeometry>
                </mxCell>
                <mxCell id="700" value="" style="edgeStyle=none;html=1;fontSize=12;endArrow=none;" edge="1" parent="WIyWlLk6GJQsqaUBKTNV-1" source="697" target="699">
                    <mxGeometry relative="1" as="geometry">
                        <mxPoint x="-370" y="6610" as="targetPoint"/>
                        <mxPoint x="-132.28571428571422" y="6570" as="sourcePoint"/>
                        <Array as="points">
                            <mxPoint x="-130" y="6610"/>
                        </Array>
                    </mxGeometry>
                </mxCell>
                <mxCell id="701" value="" style="edgeStyle=none;html=1;fontSize=12;endArrow=none;" edge="1" parent="WIyWlLk6GJQsqaUBKTNV-1" source="693" target="699">
                    <mxGeometry relative="1" as="geometry">
                        <mxPoint x="-420" y="6650" as="targetPoint"/>
                        <mxPoint x="-672.181818181818" y="6460" as="sourcePoint"/>
                        <Array as="points">
                            <mxPoint x="-710" y="6520"/>
                            <mxPoint x="-420" y="6530"/>
                        </Array>
                    </mxGeometry>
                </mxCell>
                <mxCell id="699" value="" style="shape=waypoint;sketch=0;size=6;pointerEvents=1;points=[];fillColor=none;resizable=0;rotatable=0;perimeter=centerPerimeter;snapToPoint=1;fontSize=12;" vertex="1" parent="WIyWlLk6GJQsqaUBKTNV-1">
                    <mxGeometry x="-427.5" y="6590" width="20" height="20" as="geometry"/>
                </mxCell>
                <mxCell id="723" style="edgeStyle=none;html=1;fontSize=12;startArrow=none;entryX=0.5;entryY=0;entryDx=0;entryDy=0;" edge="1" parent="WIyWlLk6GJQsqaUBKTNV-1" source="726" target="730">
                    <mxGeometry relative="1" as="geometry">
                        <mxPoint x="-400" y="8030" as="targetPoint"/>
                        <Array as="points">
                            <mxPoint x="-280" y="8000"/>
                            <mxPoint x="-414" y="8000"/>
                        </Array>
                    </mxGeometry>
                </mxCell>
                <mxCell id="726" value="" style="shape=waypoint;sketch=0;size=6;pointerEvents=1;points=[];fillColor=none;resizable=0;rotatable=0;perimeter=centerPerimeter;snapToPoint=1;fontSize=12;" vertex="1" parent="WIyWlLk6GJQsqaUBKTNV-1">
                    <mxGeometry x="-289" y="7940" width="20" height="20" as="geometry"/>
                </mxCell>
                <mxCell id="725" value="" style="edgeStyle=none;html=1;fontSize=12;endArrow=none;" edge="1" parent="WIyWlLk6GJQsqaUBKTNV-1" source="722" target="726">
                    <mxGeometry relative="1" as="geometry">
                        <mxPoint x="-300" y="7880" as="targetPoint"/>
                        <mxPoint x="-487.57894736842127" y="7720" as="sourcePoint"/>
                        <Array as="points">
                            <mxPoint x="-480" y="7860"/>
                            <mxPoint x="-280" y="7860"/>
                        </Array>
                    </mxGeometry>
                </mxCell>
                <mxCell id="728" value="" style="edgeStyle=none;html=1;fontSize=12;endArrow=none;" edge="1" parent="WIyWlLk6GJQsqaUBKTNV-1" source="724" target="726">
                    <mxGeometry relative="1" as="geometry">
                        <mxPoint x="-340" y="7950" as="targetPoint"/>
                        <mxPoint x="-120" y="7900" as="sourcePoint"/>
                        <Array as="points">
                            <mxPoint x="-120" y="7950"/>
                        </Array>
                    </mxGeometry>
                </mxCell>
                <mxCell id="nv5aGaVvqSRqhyQhocDM-751" value="" style="edgeStyle=none;html=1;fontSize=12;endArrow=none;exitX=0.5;exitY=1;exitDx=0;exitDy=0;" edge="1" parent="WIyWlLk6GJQsqaUBKTNV-1" source="nv5aGaVvqSRqhyQhocDM-747" target="nv5aGaVvqSRqhyQhocDM-750">
                    <mxGeometry relative="1" as="geometry">
                        <mxPoint x="-400" y="8340" as="targetPoint"/>
                        <mxPoint x="-210" y="8300" as="sourcePoint"/>
                        <Array as="points">
                            <mxPoint x="-210" y="8340"/>
                        </Array>
                    </mxGeometry>
                </mxCell>
                <mxCell id="nv5aGaVvqSRqhyQhocDM-752" value="" style="edgeStyle=none;html=1;fontSize=12;endArrow=none;" edge="1" parent="WIyWlLk6GJQsqaUBKTNV-1" source="nv5aGaVvqSRqhyQhocDM-746" target="nv5aGaVvqSRqhyQhocDM-750">
                    <mxGeometry relative="1" as="geometry">
                        <mxPoint x="-410" y="8340" as="targetPoint"/>
                        <mxPoint x="-600" y="8300" as="sourcePoint"/>
                        <Array as="points">
                            <mxPoint x="-600" y="8340"/>
                        </Array>
                    </mxGeometry>
                </mxCell>
                <mxCell id="nv5aGaVvqSRqhyQhocDM-753" style="edgeStyle=none;html=1;fontSize=12;entryX=0.5;entryY=0;entryDx=0;entryDy=0;" edge="1" parent="WIyWlLk6GJQsqaUBKTNV-1" source="nv5aGaVvqSRqhyQhocDM-750" target="nv5aGaVvqSRqhyQhocDM-754">
                    <mxGeometry relative="1" as="geometry">
                        <mxPoint x="-430" y="8380" as="targetPoint"/>
                    </mxGeometry>
                </mxCell>
                <mxCell id="nv5aGaVvqSRqhyQhocDM-750" value="" style="shape=waypoint;sketch=0;size=6;pointerEvents=1;points=[];fillColor=none;resizable=0;rotatable=0;perimeter=centerPerimeter;snapToPoint=1;fontSize=12;" vertex="1" parent="WIyWlLk6GJQsqaUBKTNV-1">
                    <mxGeometry x="-440" y="8330" width="20" height="20" as="geometry"/>
                </mxCell>
                <mxCell id="nv5aGaVvqSRqhyQhocDM-766" value="" style="edgeStyle=none;html=1;fontSize=12;endArrow=none;" edge="1" parent="WIyWlLk6GJQsqaUBKTNV-1" source="nv5aGaVvqSRqhyQhocDM-762" target="nv5aGaVvqSRqhyQhocDM-765">
                    <mxGeometry relative="1" as="geometry">
                        <mxPoint x="-430" y="8650" as="targetPoint"/>
                        <mxPoint x="-609.3000000000002" y="8560" as="sourcePoint"/>
                        <Array as="points">
                            <mxPoint x="-610" y="8600"/>
                        </Array>
                    </mxGeometry>
                </mxCell>
                <mxCell id="nv5aGaVvqSRqhyQhocDM-767" value="" style="edgeStyle=none;html=1;fontSize=12;endArrow=none;entryX=0.331;entryY=0.559;entryDx=0;entryDy=0;entryPerimeter=0;" edge="1" parent="WIyWlLk6GJQsqaUBKTNV-1" source="nv5aGaVvqSRqhyQhocDM-761" target="nv5aGaVvqSRqhyQhocDM-765">
                    <mxGeometry relative="1" as="geometry">
                        <mxPoint x="-220" y="8700" as="targetPoint"/>
                        <mxPoint x="-220" y="8570" as="sourcePoint"/>
                        <Array as="points">
                            <mxPoint x="-223" y="8600"/>
                        </Array>
                    </mxGeometry>
                </mxCell>
                <mxCell id="jIR7DSRb_jp3hbyWwMM5-743" style="edgeStyle=none;html=1;entryX=0.5;entryY=0;entryDx=0;entryDy=0;fontSize=18;" edge="1" parent="WIyWlLk6GJQsqaUBKTNV-1" source="nv5aGaVvqSRqhyQhocDM-765" target="nv5aGaVvqSRqhyQhocDM-769">
                    <mxGeometry relative="1" as="geometry"/>
                </mxCell>
                <mxCell id="nv5aGaVvqSRqhyQhocDM-765" value="" style="shape=waypoint;sketch=0;size=6;pointerEvents=1;points=[];fillColor=none;resizable=0;rotatable=0;perimeter=centerPerimeter;snapToPoint=1;fontSize=12;" vertex="1" parent="WIyWlLk6GJQsqaUBKTNV-1">
                    <mxGeometry x="-443.5" y="8590" width="20" height="20" as="geometry"/>
                </mxCell>
                <mxCell id="nv5aGaVvqSRqhyQhocDM-784" value="" style="edgeStyle=none;html=1;fontSize=12;endArrow=none;entryX=0.635;entryY=0.329;entryDx=0;entryDy=0;entryPerimeter=0;" edge="1" parent="WIyWlLk6GJQsqaUBKTNV-1" source="nv5aGaVvqSRqhyQhocDM-778" target="nv5aGaVvqSRqhyQhocDM-783">
                    <mxGeometry relative="1" as="geometry">
                        <mxPoint x="-380" y="8910" as="targetPoint"/>
                        <mxPoint x="-160" y="8840" as="sourcePoint"/>
                        <Array as="points">
                            <mxPoint x="-160" y="8880"/>
                        </Array>
                    </mxGeometry>
                </mxCell>
                <mxCell id="nv5aGaVvqSRqhyQhocDM-785" value="" style="edgeStyle=none;html=1;fontSize=12;endArrow=none;" edge="1" parent="WIyWlLk6GJQsqaUBKTNV-1" source="nv5aGaVvqSRqhyQhocDM-779" target="nv5aGaVvqSRqhyQhocDM-783">
                    <mxGeometry relative="1" as="geometry">
                        <mxPoint x="-420" y="8910" as="targetPoint"/>
                        <mxPoint x="-609.3000000000002" y="8840" as="sourcePoint"/>
                        <Array as="points">
                            <mxPoint x="-610" y="8880"/>
                        </Array>
                    </mxGeometry>
                </mxCell>
                <mxCell id="jIR7DSRb_jp3hbyWwMM5-744" style="edgeStyle=none;html=1;entryX=0.5;entryY=0;entryDx=0;entryDy=0;fontSize=18;" edge="1" parent="WIyWlLk6GJQsqaUBKTNV-1" source="nv5aGaVvqSRqhyQhocDM-783" target="nv5aGaVvqSRqhyQhocDM-788">
                    <mxGeometry relative="1" as="geometry"/>
                </mxCell>
                <mxCell id="nv5aGaVvqSRqhyQhocDM-783" value="" style="shape=waypoint;sketch=0;size=6;pointerEvents=1;points=[];fillColor=none;resizable=0;rotatable=0;perimeter=centerPerimeter;snapToPoint=1;fontSize=12;" vertex="1" parent="WIyWlLk6GJQsqaUBKTNV-1">
                    <mxGeometry x="-390" y="8870" width="20" height="20" as="geometry"/>
                </mxCell>
                <mxCell id="nv5aGaVvqSRqhyQhocDM-801" value="" style="edgeStyle=none;html=1;fontSize=12;endArrow=none;entryX=0.4;entryY=0.494;entryDx=0;entryDy=0;entryPerimeter=0;" edge="1" parent="WIyWlLk6GJQsqaUBKTNV-1" source="nv5aGaVvqSRqhyQhocDM-796" target="nv5aGaVvqSRqhyQhocDM-800">
                    <mxGeometry relative="1" as="geometry">
                        <mxPoint x="-530" y="9240" as="targetPoint"/>
                        <mxPoint x="-555.1428571428569" y="9130" as="sourcePoint"/>
                        <Array as="points">
                            <mxPoint x="-562" y="9160"/>
                        </Array>
                    </mxGeometry>
                </mxCell>
                <mxCell id="nv5aGaVvqSRqhyQhocDM-802" value="" style="edgeStyle=none;html=1;fontSize=12;endArrow=none;" edge="1" parent="WIyWlLk6GJQsqaUBKTNV-1" source="nv5aGaVvqSRqhyQhocDM-797" target="nv5aGaVvqSRqhyQhocDM-800">
                    <mxGeometry relative="1" as="geometry">
                        <mxPoint x="-180" y="9200" as="targetPoint"/>
                        <mxPoint x="-180" y="9130" as="sourcePoint"/>
                        <Array as="points">
                            <mxPoint x="-183" y="9160"/>
                        </Array>
                    </mxGeometry>
                </mxCell>
                <mxCell id="jIR7DSRb_jp3hbyWwMM5-745" style="edgeStyle=none;html=1;entryX=0.5;entryY=0;entryDx=0;entryDy=0;fontSize=18;" edge="1" parent="WIyWlLk6GJQsqaUBKTNV-1" source="nv5aGaVvqSRqhyQhocDM-800" target="nv5aGaVvqSRqhyQhocDM-803">
                    <mxGeometry relative="1" as="geometry"/>
                </mxCell>
                <mxCell id="nv5aGaVvqSRqhyQhocDM-800" value="" style="shape=waypoint;sketch=0;size=6;pointerEvents=1;points=[];fillColor=none;resizable=0;rotatable=0;perimeter=centerPerimeter;snapToPoint=1;fontSize=12;" vertex="1" parent="WIyWlLk6GJQsqaUBKTNV-1">
                    <mxGeometry x="-390" y="9149" width="20" height="20" as="geometry"/>
                </mxCell>
                <mxCell id="nv5aGaVvqSRqhyQhocDM-836" value="" style="edgeStyle=none;html=1;fontSize=12;endArrow=none;" edge="1" parent="WIyWlLk6GJQsqaUBKTNV-1" source="nv5aGaVvqSRqhyQhocDM-831" target="nv5aGaVvqSRqhyQhocDM-835">
                    <mxGeometry relative="1" as="geometry">
                        <mxPoint x="-509.8800000000001" y="9880" as="targetPoint"/>
                        <mxPoint x="-509.91600000000017" y="9760" as="sourcePoint"/>
                        <Array as="points">
                            <mxPoint x="-510" y="9810"/>
                        </Array>
                    </mxGeometry>
                </mxCell>
                <mxCell id="nv5aGaVvqSRqhyQhocDM-837" value="" style="edgeStyle=none;html=1;fontSize=12;endArrow=none;" edge="1" parent="WIyWlLk6GJQsqaUBKTNV-1" source="nv5aGaVvqSRqhyQhocDM-832" target="nv5aGaVvqSRqhyQhocDM-835">
                    <mxGeometry relative="1" as="geometry">
                        <mxPoint x="-182" y="9880" as="targetPoint"/>
                        <mxPoint x="-181.33333333333348" y="9760" as="sourcePoint"/>
                        <Array as="points">
                            <mxPoint x="-182" y="9820"/>
                        </Array>
                    </mxGeometry>
                </mxCell>
                <mxCell id="nv5aGaVvqSRqhyQhocDM-838" style="edgeStyle=none;html=1;fontSize=12;entryX=0.5;entryY=0;entryDx=0;entryDy=0;" edge="1" parent="WIyWlLk6GJQsqaUBKTNV-1" source="nv5aGaVvqSRqhyQhocDM-835" target="nv5aGaVvqSRqhyQhocDM-839">
                    <mxGeometry relative="1" as="geometry">
                        <mxPoint x="-350" y="9860" as="targetPoint"/>
                    </mxGeometry>
                </mxCell>
                <mxCell id="nv5aGaVvqSRqhyQhocDM-835" value="" style="shape=waypoint;sketch=0;size=6;pointerEvents=1;points=[];fillColor=none;resizable=0;rotatable=0;perimeter=centerPerimeter;snapToPoint=1;fontSize=12;" vertex="1" parent="WIyWlLk6GJQsqaUBKTNV-1">
                    <mxGeometry x="-360" y="9810" width="20" height="20" as="geometry"/>
                </mxCell>
                <mxCell id="nv5aGaVvqSRqhyQhocDM-1223" value="" style="edgeStyle=none;html=1;fontSize=12;endArrow=none;" edge="1" parent="WIyWlLk6GJQsqaUBKTNV-1" source="729" target="nv5aGaVvqSRqhyQhocDM-1221">
                    <mxGeometry relative="1" as="geometry">
                        <mxPoint x="-705" y="11050" as="targetPoint"/>
                        <mxPoint x="-708.9529411764706" y="7900" as="sourcePoint"/>
                    </mxGeometry>
                </mxCell>
                <mxCell id="nv5aGaVvqSRqhyQhocDM-1224" value="" style="edgeStyle=none;html=1;fontSize=12;endArrow=none;" edge="1" parent="WIyWlLk6GJQsqaUBKTNV-1" source="nv5aGaVvqSRqhyQhocDM-1218" target="nv5aGaVvqSRqhyQhocDM-1221">
                    <mxGeometry relative="1" as="geometry">
                        <mxPoint x="-650" y="11050" as="targetPoint"/>
                        <mxPoint x="-351.3684210526317" y="10910" as="sourcePoint"/>
                        <Array as="points">
                            <mxPoint x="-360" y="11050"/>
                        </Array>
                    </mxGeometry>
                </mxCell>
                <mxCell id="nv5aGaVvqSRqhyQhocDM-1225" style="edgeStyle=none;html=1;entryX=0.5;entryY=0;entryDx=0;entryDy=0;fontSize=12;" edge="1" parent="WIyWlLk6GJQsqaUBKTNV-1" source="nv5aGaVvqSRqhyQhocDM-1221" target="mvioNwK95yMqdUQ73LqQ-69">
                    <mxGeometry relative="1" as="geometry"/>
                </mxCell>
                <mxCell id="nv5aGaVvqSRqhyQhocDM-1221" value="" style="shape=waypoint;sketch=0;size=6;pointerEvents=1;points=[];fillColor=none;resizable=0;rotatable=0;perimeter=centerPerimeter;snapToPoint=1;fontSize=12;" vertex="1" parent="WIyWlLk6GJQsqaUBKTNV-1">
                    <mxGeometry x="-719" y="11040" width="20" height="20" as="geometry"/>
                </mxCell>
            </root>
        </mxGraphModel>
    </diagram>
</mxfile>